solid OBJECT
  facet normal -0.062442479470337667 0.18614333310374476 -0.98053638193522663
    outer loop
      vertex 0.033705048893986615 0.10051018472346213 -0.11600002646446228
      vertex -0.63050001859664917 -7.2929823991979627e-16 -0.092782825231552124
      vertex -0.63050001859664917 0.037203633739640425 -0.085720151662826538
    endloop
  endfacet
  facet normal -0.089325958626297594 0.53552543460109847 -0.8397817466525439
    outer loop
      vertex -0.63050001859664917 0.037203633739640425 -0.085720151662826538
      vertex -0.63050001859664917 0.068743354696220629 -0.065607398748397827
      vertex 0.033705048893986615 0.10051018472346213 -0.11600002646446228
    endloop
  endfacet
  facet normal -0.03654486797977953 -0.68995221277195862 -0.72293182023992986
    outer loop
      vertex -0.12657034267275341 -0.11682966336097607 -0.062882274389266968
      vertex -0.12657034267275341 -0.074794301025029972 -0.10300001502037048
      vertex 0.058999782816918742 -0.088906821125649335 -0.098912037909030914
    endloop
  endfacet
  facet normal -0.082410769468918052 0.81640056515293802 -0.57157552632482811
    outer loop
      vertex -0.63050001859664917 0.068743354696220629 -0.065607398748397827
      vertex -0.63050001859664917 0.089817521355858715 -0.035506457090377808
      vertex 0.033705048893986615 0.10051018472346213 -0.11600002646446228
    endloop
  endfacet
  facet normal -0.03493353403523413 0 -0.99938963782891455
    outer loop
      vertex 0.033705048893986615 0.10051018472346213 -0.11600002646446228
      vertex 0.033705048893986629 0.061741593328422252 -0.11600002646446228
      vertex -0.63050001859664917 -7.2929823991979627e-16 -0.092782825231552124
    endloop
  endfacet
  facet normal -0.02923505866515606 -0.060678765495788059 -0.99772912093551336
    outer loop
      vertex -0.63050001859664917 -7.2929823991979627e-16 -0.092782825231552124
      vertex 0.033705048893986629 0.061741593328422252 -0.11600002646446228
      vertex -0.12657034267275341 -0.074794301025029972 -0.10300001502037048
    endloop
  endfacet
  facet normal -0.074856903290737117 -0.81688866854816677 -0.57191725557752193
    outer loop
      vertex -0.12657034267275341 -0.11682966336097607 -0.062882274389266968
      vertex -0.63050001859664917 -0.089817521355857605 -0.035506457090377808
      vertex -0.63050001859664917 -0.068743354696219533 -0.065607398748397827
    endloop
  endfacet
  facet normal -0.061850391340029093 -0.68909155623546792 -0.72203002445609299
    outer loop
      vertex -0.63050001859664917 -0.068743354696219533 -0.065607398748397827
      vertex -0.12657034267275341 -0.074794301025029972 -0.10300001502037048
      vertex -0.12657034267275341 -0.11682966336097607 -0.062882274389266968
    endloop
  endfacet
  facet normal -0.063454072101234313 -0.97688121824569574 -0.20414863744971917
    outer loop
      vertex -0.12657034267275341 -0.11682966336097607 -0.062882274389266968
      vertex 0.041260896713984758 -0.12990096275109536 -0.052499979734420776
      vertex -0.63050001859664917 -0.089817521355857605 -0.035506457090377808
    endloop
  endfacet
  facet normal -0.016942977734304154 -0.74616919534189929 -0.66554073310979078
    outer loop
      vertex -0.12657034267275341 -0.11682966336097607 -0.062882274389266968
      vertex 0.058999782816918742 -0.088906821125649335 -0.098912037909030914
      vertex 0.041260896713984758 -0.12990096275109536 -0.052499979734420776
    endloop
  endfacet
  facet normal -0.03493353403523413 -0 0.99938963782891455
    outer loop
      vertex 0.033705048893986629 0.061741593328422252 0.1159999668598175
      vertex 0.033705048893986615 0.10051018472346213 0.1159999668598175
      vertex -0.63050001859664917 -8.2077922700894468e-16 0.092782765626907349
    endloop
  endfacet
  facet normal 0.56126772199761787 -0.098819921444347175 0.82171355554678405
    outer loop
      vertex 0.087757735597830872 0.098566234439513664 0.10174919664859772
      vertex 0.061378801907052763 0.098203464166252377 0.11972358077764511
      vertex 0.058106816922288029 -0.089443134689590434 0.099391967058181763
    endloop
  endfacet
  facet normal -0.063447364822990099 -0.97699106148178838 -0.20362440345328617
    outer loop
      vertex 0.041260896713984758 -0.12990096275109536 -0.052499979734420776
      vertex -0.63050001859664917 -0.097217780431455542 2.8610228852699038e-08
      vertex -0.63050001859664917 -0.089817521355857605 -0.035506457090377808
    endloop
  endfacet
  facet normal 0.55721628399171297 -0.10299427014670727 -0.8239552130858897
    outer loop
      vertex 0.081054836023974508 -0.088015169281821987 -0.083928197622299194
      vertex 0.061310865111440148 0.061741593328422238 -0.11600002646446228
      vertex 0.085208060560731186 0.10049450883827607 -0.10468317568302155
    endloop
  endfacet
  facet normal -0.047547243176997975 -0.18629634851757701 -0.9813424123084078
    outer loop
      vertex -0.12657034267275341 -0.074794301025029972 -0.10300001502037048
      vertex -0.63050001859664917 -0.037203633739639322 -0.085720151662826538
      vertex -0.63050001859664917 -7.2929823991979627e-16 -0.092782825231552124
    endloop
  endfacet
  facet normal -0.068855961861838344 -0.53639870745507379 -0.84115116546112401
    outer loop
      vertex -0.63050001859664917 -0.068743354696219533 -0.065607398748397827
      vertex -0.63050001859664917 -0.037203633739639322 -0.085720151662826538
      vertex -0.12657034267275341 -0.074794301025029972 -0.10300001502037048
    endloop
  endfacet
  facet normal 0.56185626535728206 -0.10173993292994322 -0.82095464133299001
    outer loop
      vertex 0.058999782816918742 -0.088906821125649335 -0.098912037909030914
      vertex 0.061310865111440148 0.061741593328422238 -0.11600002646446228
      vertex 0.081054836023974508 -0.088015169281821987 -0.083928197622299194
    endloop
  endfacet
  facet normal 0.96828059193774518 -0.069773221772079827 -0.2399258068658596
    outer loop
      vertex 0.10673045434737663 -0.088015169281822001 -0.019692273810505867
      vertex 0.097714354294149181 -0.088015169281822001 -0.056079000234603882
      vertex 0.10824459661277543 0.098530948084413664 -0.067831359803676605
    endloop
  endfacet
  facet normal 0.96916962866264089 -0.068912256645232275 -0.23656147565058119
    outer loop
      vertex 0.10824459661277543 0.098530948084413664 -0.067831359803676605
      vertex 0.1191513120252862 0.098590154216510614 -0.023164842277765274
      vertex 0.10673045434737663 -0.088015169281822001 -0.019692273810505867
    endloop
  endfacet
  facet normal 0.85538530130543144 -0.080521875252068179 -0.51169543081456836
    outer loop
      vertex 0.081054836023974508 -0.088015169281821987 -0.083928197622299194
      vertex 0.10824459661277543 0.098530948084413664 -0.067831359803676605
      vertex 0.097714354294149181 -0.088015169281822001 -0.056079000234603882
    endloop
  endfacet
  facet normal 0.84357991118833697 -0.077097426474700942 -0.53144042024525728
    outer loop
      vertex 0.085208060560731186 0.10049450883827607 -0.10468317568302155
      vertex 0.10824459661277543 0.098530948084413664 -0.067831359803676605
      vertex 0.081054836023974508 -0.088015169281821987 -0.083928197622299194
    endloop
  endfacet
  facet normal 0.56031325669909615 -0.098677770698666165 0.82238175559602134
    outer loop
      vertex 0.058106816922288029 -0.089443134689590434 0.099391967058181763
      vertex 0.081054836023974508 -0.088015169281821987 0.083928138017654419
      vertex 0.087757735597830872 0.098566234439513664 0.10174919664859772
    endloop
  endfacet
  facet normal 0.85320137655496697 -0.079881495357198989 0.51542832454591336
    outer loop
      vertex 0.087757735597830872 0.098566234439513664 0.10174919664859772
      vertex 0.081054836023974508 -0.088015169281821987 0.083928138017654419
      vertex 0.10824458324180319 0.098530948084413664 0.067831337451934814
    endloop
  endfacet
  facet normal 0.43192341823375702 -0.693231067871525 0.57695133877907945
    outer loop
      vertex 0.054629782507259445 -0.13072309579134633 0.05239538848400116
      vertex 0.081054836023974508 -0.088015169281821987 0.083928138017654419
      vertex 0.058106816922288029 -0.089443134689590434 0.099391967058181763
    endloop
  endfacet
  facet normal -0.062442479470337639 0.18614333310374437 0.98053638193522685
    outer loop
      vertex 0.033705048893986615 0.10051018472346213 0.1159999668598175
      vertex -0.63050001859664917 0.037203633739640425 0.085720092058181763
      vertex -0.63050001859664917 -8.2077922700894468e-16 0.092782765626907349
    endloop
  endfacet
  facet normal -0.089325958626297594 0.53552543460109847 0.8397817466525439
    outer loop
      vertex 0.033705048893986615 0.10051018472346213 0.1159999668598175
      vertex -0.63050001859664917 0.068743354696220629 0.065607339143753052
      vertex -0.63050001859664917 0.037203633739640425 0.085720092058181763
    endloop
  endfacet
  facet normal -0.082446630348629105 0.81580054068043339 0.57242644153608868
    outer loop
      vertex 0.033705048893986615 0.10051018472346213 0.1159999668598175
      vertex -0.6304929587233159 0.089837311380234472 0.035546045750379562
      vertex -0.63050001859664917 0.068743354696220629 0.065607339143753052
    endloop
  endfacet
  facet normal -0.063431545101911471 0.97699204594716593 -0.20362460863548562
    outer loop
      vertex -0.63050001859664917 0.097217780431456638 2.8610228852699038e-08
      vertex -0.12657034267275352 0.11682966336097644 -0.062882274389266968
      vertex -0.63050001859664917 0.089817521355858715 -0.035506457090377808
    endloop
  endfacet
  facet normal -0.073130571426638452 0.86983016100146715 -0.48790102534732921
    outer loop
      vertex -0.63050001859664917 0.089817521355858715 -0.035506457090377808
      vertex -0.12657034267275352 0.11682966336097644 -0.062882274389266968
      vertex 0.033705048893986615 0.10051018472346213 -0.11600002646446228
    endloop
  endfacet
  facet normal -0.055531346472180887 -0.99436823280347175 0.090266755509916696
    outer loop
      vertex -0.63050001859664917 -0.097217780431455542 2.8610228852699038e-08
      vertex 0.02898320593552365 -0.13252046718074667 0.016818193718791008
      vertex 0.054629782507259445 -0.13072309579134633 0.05239538848400116
    endloop
  endfacet
  facet normal -0.06931865310808541 -0.81721657530358893 0.57214682851550824
    outer loop
      vertex -0.63050001859664917 -0.068743354696219533 0.065607339143753052
      vertex -0.63050001859664917 -0.089817521355857605 0.035506397485733032
      vertex -0.12657034267275341 -0.11682966336097607 0.057977825403213501
    endloop
  endfacet
  facet normal -0.064172114962605428 -0.95426545724278977 0.29199208341055355
    outer loop
      vertex 0.054629782507259445 -0.13072309579134633 0.05239538848400116
      vertex -0.12657034267275341 -0.11682966336097607 0.057977825403213501
      vertex -0.63050001859664917 -0.089817521355857605 0.035506397485733032
    endloop
  endfacet
  facet normal -0.063351007104901075 -0.9769969202017591 0.20362629450803388
    outer loop
      vertex -0.63050001859664917 -0.097217780431455542 2.8610228852699038e-08
      vertex 0.054629782507259445 -0.13072309579134633 0.05239538848400116
      vertex -0.63050001859664917 -0.089817521355857605 0.035506397485733032
    endloop
  endfacet
  facet normal -0.033635908811293212 -0.18640175544130783 0.98189765821435648
    outer loop
      vertex -0.63050001859664917 -0.037203633739639322 0.085720092058181763
      vertex 0.058106816922288029 -0.089443134689590434 0.099391967058181763
      vertex -0.63050001859664917 -8.2077922700894468e-16 0.092782765626907349
    endloop
  endfacet
  facet normal -0.024214325456277202 -0.11302431773857238 0.99329712072593257
    outer loop
      vertex 0.058106816922288029 -0.089443134689590434 0.099391967058181763
      vertex 0.033705048893986629 0.061741593328422252 0.1159999668598175
      vertex -0.63050001859664917 -8.2077922700894468e-16 0.092782765626907349
    endloop
  endfacet
  facet normal -0.057434722462794831 -0.53678725928681537 0.84176047122858588
    outer loop
      vertex -0.63050001859664917 -0.068743354696219533 0.065607339143753052
      vertex 0.058106816922288029 -0.089443134689590434 0.099391967058181763
      vertex -0.63050001859664917 -0.037203633739639322 0.085720092058181763
    endloop
  endfacet
  facet normal -0.05597830557410248 -0.69964938688858036 0.71229008467862731
    outer loop
      vertex -0.12657034267275341 -0.11682966336097607 0.057977825403213501
      vertex 0.058106816922288029 -0.089443134689590434 0.099391967058181763
      vertex -0.63050001859664917 -0.068743354696219533 0.065607339143753052
    endloop
  endfacet
  facet normal -0.037098261670327599 -0.74944422911469233 0.66102728115239273
    outer loop
      vertex 0.054629782507259445 -0.13072309579134633 0.05239538848400116
      vertex 0.058106816922288029 -0.089443134689590434 0.099391967058181763
      vertex -0.12657034267275341 -0.11682966336097607 0.057977825403213501
    endloop
  endfacet
  facet normal -0.056088189325889513 -0.99348636137193647 -0.099191556022139402
    outer loop
      vertex 0.02222377054836925 -0.13252046718074664 -0.01549884770065546
      vertex -0.63050001859664917 -0.097217780431455542 2.8610228852699038e-08
      vertex 0.041260896713984758 -0.12990096275109536 -0.052499979734420776
    endloop
  endfacet
  facet normal 0.43153423903371385 -0.67820298370317067 -0.59482679280418316
    outer loop
      vertex 0.081054836023974508 -0.088015169281821987 -0.083928197622299194
      vertex 0.064739384068008748 -0.13425340193851087 -0.043045319616794586
      vertex 0.058999782816918742 -0.088906821125649335 -0.098912037909030914
    endloop
  endfacet
  facet normal 0.85538529849017186 -0.080521915860630205 0.51169542913046706
    outer loop
      vertex 0.081054836023974508 -0.088015169281821987 0.083928138017654419
      vertex 0.097714354294149181 -0.088015169281822001 0.056078940629959106
      vertex 0.10824458324180319 0.098530948084413664 0.067831337451934814
    endloop
  endfacet
  facet normal -0.053736734879575747 -0.99849188036534153 0.011239580462230701
    outer loop
      vertex 0.02222377054836925 -0.13252046718074664 -0.01549884770065546
      vertex 0.02898320593552365 -0.13252046718074667 0.016818193718791008
      vertex -0.63050001859664917 -0.097217780431455542 2.8610228852699038e-08
    endloop
  endfacet
  facet normal 0.68432529986149093 -0.60342183609117206 -0.40936654931471755
    outer loop
      vertex 0.064739384068008748 -0.13425340193851087 -0.043045319616794586
      vertex 0.081054836023974508 -0.088015169281821987 -0.083928197622299194
      vertex 0.097714354294149181 -0.088015169281822001 -0.056079000234603882
    endloop
  endfacet
  facet normal 0.77278592627762688 -0.60509121310020164 -0.19148508029649861
    outer loop
      vertex 0.10673045434737663 -0.088015169281822001 -0.019692273810505867
      vertex 0.064739384068008748 -0.13425340193851087 -0.043045319616794586
      vertex 0.097714354294149181 -0.088015169281822001 -0.056079000234603882
    endloop
  endfacet
  facet normal 0.76896509352209907 -0.62037905061358545 -0.15434545184208029
    outer loop
      vertex 0.077148484204344475 -0.1332604813782329 0.014787144027650356
      vertex 0.064739384068008748 -0.13425340193851087 -0.043045319616794586
      vertex 0.10673045434737663 -0.088015169281822001 -0.019692273810505867
    endloop
  endfacet
  facet normal 0.96919169748289136 -0.068890561910980808 0.23647736468808364
    outer loop
      vertex 0.10824458324180319 0.098530948084413664 0.067831337451934814
      vertex 0.10673045434737663 -0.088015169281822001 0.019692329689860344
      vertex 0.11900133428686203 0.09862459744631176 0.023772565647959709
    endloop
  endfacet
  facet normal 0.96828041324526548 -0.069773235378515874 0.23992652406599863
    outer loop
      vertex 0.097714354294149181 -0.088015169281822001 0.056078940629959106
      vertex 0.10673045434737663 -0.088015169281822001 0.019692329689860344
      vertex 0.10824458324180319 0.098530948084413664 0.067831337451934814
    endloop
  endfacet
  facet normal -0.062721752019257004 0.97718711537281122 0.20290717920516974
    outer loop
      vertex -0.6304929587233159 0.089837311380234472 0.035546045750379562
      vertex 0.043791183562800422 0.1278315585453646 0.061000019311904907
      vertex -0.63050001859664917 0.097217780431456638 2.8610228852699038e-08
    endloop
  endfacet
  facet normal -0.051424926863277515 0.99632998409196183 0.068425431649479229
    outer loop
      vertex -0.63050001859664917 0.097217780431456638 2.8610228852699038e-08
      vertex 0.043791183562800422 0.1278315585453646 0.061000019311904907
      vertex 0.026186498843878154 0.12992715428236992 0.017255691811442375
    endloop
  endfacet
  facet normal -0.067006976063800738 0.89841623994029496 0.43400267852897778
    outer loop
      vertex -0.6304929587233159 0.089837311380234472 0.035546045750379562
      vertex 0.033705048893986615 0.10051018472346213 0.1159999668598175
      vertex 0.043791183562800422 0.1278315585453646 0.061000019311904907
    endloop
  endfacet
  facet normal 0.53904848119096371 0.8317511881741857 -0.13272790172584389
    outer loop
      vertex 0.07556628591883055 0.13049414823913022 -0.00024771052994765341
      vertex 0.1191513120252862 0.098590154216510614 -0.023164842277765274
      vertex 0.10824459661277543 0.098530948084413664 -0.067831359803676605
    endloop
  endfacet
  facet normal 0.41879848007466758 0.88231260495076791 -0.21478431095435821
    outer loop
      vertex 0.07556628591883055 0.13049414823913022 -0.00024771052994765341
      vertex 0.10824459661277543 0.098530948084413664 -0.067831359803676605
      vertex 0.085208060560731186 0.10049450883827607 -0.10468317568302155
    endloop
  endfacet
  facet normal 0.0048069392976372192 0.99893355824400309 0.04591992539806565
    outer loop
      vertex 0.043791183562800422 0.1278315585453646 0.061000019311904907
      vertex 0.07556628591883055 0.13049414823913022 -0.00024771052994765341
      vertex 0.026186498843878154 0.12992715428236992 0.017255691811442375
    endloop
  endfacet
  facet normal 0.65111019462548325 -0.65141960961141865 0.38949712023129518
    outer loop
      vertex 0.081054836023974508 -0.088015169281821987 0.083928138017654419
      vertex 0.077148484204344475 -0.1332604813782329 0.014787144027650356
      vertex 0.097714354294149181 -0.088015169281822001 0.056078940629959106
    endloop
  endfacet
  facet normal 0.80985118493522801 -0.55124643343897228 0.20066994762499868
    outer loop
      vertex 0.097714354294149181 -0.088015169281822001 0.056078940629959106
      vertex 0.077148484204344475 -0.1332604813782329 0.014787144027650356
      vertex 0.10673045434737663 -0.088015169281822001 0.019692329689860344
    endloop
  endfacet
  facet normal 0.43729707693119513 0.85992826853801974 0.26323874995265423
    outer loop
      vertex 0.10824458324180319 0.098530948084413664 0.067831337451934814
      vertex 0.054609060843058194 0.1297445708148747 0.054965376853942871
      vertex 0.087757735597830872 0.098566234439513664 0.10174919664859772
    endloop
  endfacet
  facet normal 0.53745903442559695 0.83273760285080811 0.13298823674519092
    outer loop
      vertex 0.11900133428686203 0.09862459744631176 0.023772565647959709
      vertex 0.07556628591883055 0.13049414823913022 -0.00024771052994765341
      vertex 0.10824458324180319 0.098530948084413664 0.067831337451934814
    endloop
  endfacet
  facet normal 0.46035193626524096 0.86792100465956035 0.1865186973136547
    outer loop
      vertex 0.10824458324180319 0.098530948084413664 0.067831337451934814
      vertex 0.07556628591883055 0.13049414823913022 -0.00024771052994765341
      vertex 0.054609060843058194 0.1297445708148747 0.054965376853942871
    endloop
  endfacet
  facet normal 0.60848376899600454 -0.67934002733690746 0.41017634028099048
    outer loop
      vertex 0.054629782507259445 -0.13072309579134633 0.05239538848400116
      vertex 0.077148484204344475 -0.1332604813782329 0.014787144027650356
      vertex 0.081054836023974508 -0.088015169281821987 0.083928138017654419
    endloop
  endfacet
  facet normal 0.26084922477970102 0.87836243131507841 0.40054602879830575
    outer loop
      vertex 0.087757735597830872 0.098566234439513664 0.10174919664859772
      vertex 0.054609060843058194 0.1297445708148747 0.054965376853942871
      vertex 0.061378801907052763 0.098203464166252377 0.11972358077764511
    endloop
  endfacet
  facet normal -0.055321479700045514 0.98932948894305295 -0.13478388698755908
    outer loop
      vertex 0.041429691867316008 0.1278315585453646 -0.051081985235214233
      vertex -0.12657034267275352 0.11682966336097644 -0.062882274389266968
      vertex -0.63050001859664917 0.097217780431456638 2.8610228852699038e-08
    endloop
  endfacet
  facet normal -0.033425025274644041 0.9225998153467585 -0.38430762210437119
    outer loop
      vertex -0.12657034267275352 0.11682966336097644 -0.062882274389266968
      vertex 0.041429691867316008 0.1278315585453646 -0.051081985235214233
      vertex 0.033705048893986615 0.10051018472346213 -0.11600002646446228
    endloop
  endfacet
  facet normal -0.048618857211192981 0.99795707178149118 -0.041447431823809146
    outer loop
      vertex 0.041429691867316008 0.1278315585453646 -0.051081985235214233
      vertex -0.63050001859664917 0.097217780431456638 2.8610228852699038e-08
      vertex 0.026186498843878154 0.12992715428236992 0.017255691811442375
    endloop
  endfacet
  facet normal -0.13335224971882545 -4.7735400196389858e-17 0.99106870472986264
    outer loop
      vertex 0.061378801907052763 0.098203464166252377 0.11972358077764511
      vertex 0.033705048893986615 0.10051018472346213 0.1159999668598175
      vertex 0.033705048893986629 0.061741593328422252 0.1159999668598175
    endloop
  endfacet
  facet normal -1.381530746552431e-17 -0.094784474610356967 -0.99549781685990579
    outer loop
      vertex 0.033705048893986629 0.061741593328422252 -0.11600002646446228
      vertex 0.061310865111440148 0.061741593328422238 -0.11600002646446228
      vertex -0.12657034267275341 -0.074794301025029972 -0.10300001502037048
    endloop
  endfacet
  facet normal 0 0 -1
    outer loop
      vertex 0.061310865111440148 0.061741593328422238 -0.11600002646446228
      vertex 0.033705048893986629 0.061741593328422252 -0.11600002646446228
      vertex 0.033705048893986615 0.10051018472346213 -0.11600002646446228
    endloop
  endfacet
  facet normal 0.21219191313518262 0.1510947585676059 -0.96547654861908894
    outer loop
      vertex 0.085208060560731186 0.10049450883827607 -0.10468317568302155
      vertex 0.061310865111440148 0.061741593328422238 -0.11600002646446228
      vertex 0.033705048893986615 0.10051018472346213 -0.11600002646446228
    endloop
  endfacet
  facet normal 0.013300615501441015 -0.11289833264477378 -0.99351751877524186
    outer loop
      vertex 0.061310865111440148 0.061741593328422238 -0.11600002646446228
      vertex 0.058999782816918742 -0.088906821125649335 -0.098912037909030914
      vertex -0.12657034267275341 -0.074794301025029972 -0.10300001502037048
    endloop
  endfacet
  facet normal -1 -0 0
    outer loop
      vertex -0.63050001859664917 0.037203633739640425 0.085720092058181763
      vertex -0.63050001859664917 0.068743354696220629 0.065607339143753052
      vertex -0.63050001859664917 -0.089817521355857605 0.035506397485733032
    endloop
  endfacet
  facet normal -1 -0 0
    outer loop
      vertex -0.63050001859664917 -0.037203633739639322 0.085720092058181763
      vertex -0.63050001859664917 -0.089817521355857605 0.035506397485733032
      vertex -0.63050001859664917 -0.068743354696219533 0.065607339143753052
    endloop
  endfacet
  facet normal -1 0 -0
    outer loop
      vertex -0.63050001859664917 0.089817521355858715 -0.035506457090377808
      vertex -0.63050001859664917 0.068743354696220629 -0.065607398748397827
      vertex -0.63050001859664917 -0.089817521355857605 0.035506397485733032
    endloop
  endfacet
  facet normal -1 -0 0
    outer loop
      vertex -0.63050001859664917 -7.2929823991979627e-16 -0.092782825231552124
      vertex -0.63050001859664917 -0.089817521355857605 0.035506397485733032
      vertex -0.63050001859664917 0.037203633739640425 -0.085720151662826538
    endloop
  endfacet
  facet normal -1 0 0
    outer loop
      vertex -0.63050001859664917 0.068743354696220629 -0.065607398748397827
      vertex -0.63050001859664917 0.037203633739640425 -0.085720151662826538
      vertex -0.63050001859664917 -0.089817521355857605 0.035506397485733032
    endloop
  endfacet
  facet normal -1 -0 -0
    outer loop
      vertex -0.63050001859664917 -0.037203633739639322 -0.085720151662826538
      vertex -0.63050001859664917 -0.068743354696219533 -0.065607398748397827
      vertex -0.63050001859664917 -0.089817521355857605 0.035506397485733032
    endloop
  endfacet
  facet normal -0.99999997775132288 3.9342609823927091e-05 -0.00020724264213159221
    outer loop
      vertex -0.6304929587233159 0.089837311380234472 0.035546045750379562
      vertex -0.63050001859664917 -0.089817521355857605 0.035506397485733032
      vertex -0.63050001859664917 0.068743354696220629 0.065607339143753052
    endloop
  endfacet
  facet normal -1 0 -0
    outer loop
      vertex -0.63050001859664917 0.089817521355858715 -0.035506457090377808
      vertex -0.63050001859664917 -0.089817521355857605 0.035506397485733032
      vertex -0.63050001859664917 0.097217780431456638 2.8610228852699038e-08
    endloop
  endfacet
  facet normal -1 -0 -0
    outer loop
      vertex -0.63050001859664917 -0.068743354696219533 -0.065607398748397827
      vertex -0.63050001859664917 -0.089817521355857605 -0.035506457090377808
      vertex -0.63050001859664917 -0.089817521355857605 0.035506397485733032
    endloop
  endfacet
  facet normal -1 -0 -0
    outer loop
      vertex -0.63050001859664917 -0.097217780431455542 2.8610228852699038e-08
      vertex -0.63050001859664917 -0.089817521355857605 0.035506397485733032
      vertex -0.63050001859664917 -0.089817521355857605 -0.035506457090377808
    endloop
  endfacet
  facet normal -1 -0 0
    outer loop
      vertex -0.63050001859664917 -0.037203633739639322 0.085720092058181763
      vertex -0.63050001859664917 -8.2077922700894468e-16 0.092782765626907349
      vertex -0.63050001859664917 -0.089817521355857605 0.035506397485733032
    endloop
  endfacet
  facet normal -1 -0 -0
    outer loop
      vertex -0.63050001859664917 -0.037203633739639322 -0.085720151662826538
      vertex -0.63050001859664917 -0.089817521355857605 0.035506397485733032
      vertex -0.63050001859664917 -7.2929823991979627e-16 -0.092782825231552124
    endloop
  endfacet
  facet normal -1 0 -0
    outer loop
      vertex -0.63050001859664917 0.037203633739640425 0.085720092058181763
      vertex -0.63050001859664917 -0.089817521355857605 0.035506397485733032
      vertex -0.63050001859664917 -8.2077922700894468e-16 0.092782765626907349
    endloop
  endfacet
  facet normal -0.99999997785440653 3.9251242590331159e-05 0.0002067620045617922
    outer loop
      vertex -0.6304929587233159 0.089837311380234472 0.035546045750379562
      vertex -0.63050001859664917 0.097217780431456638 2.8610228852699038e-08
      vertex -0.63050001859664917 -0.089817521355857605 0.035506397485733032
    endloop
  endfacet
  facet normal 0.0083481708493531731 -0.10786021736479803 0.99413101830366846
    outer loop
      vertex 0.058106816922288029 -0.089443134689590434 0.099391967058181763
      vertex 0.061378801907052763 0.098203464166252377 0.11972358077764511
      vertex 0.033705048893986629 0.061741593328422252 0.1159999668598175
    endloop
  endfacet
  facet normal 0.11301481189860725 -0.76573348246891226 -0.63315076097052481
    outer loop
      vertex 0.064739384068008748 -0.13425340193851087 -0.043045319616794586
      vertex 0.041260896713984758 -0.12990096275109536 -0.052499979734420776
      vertex 0.058999782816918742 -0.088906821125649335 -0.098912037909030914
    endloop
  endfacet
  facet normal 0.99783583081013527 -0.065674801126531651 0.0032365488467373613
    outer loop
      vertex 0.10673045434737663 -0.088015169281822001 0.019692329689860344
      vertex 0.1191513120252862 0.098590154216510614 -0.023164842277765274
      vertex 0.11900133428686203 0.09862459744631176 0.023772565647959709
    endloop
  endfacet
  facet normal 0.99779207190829455 -0.066415218413799312 0
    outer loop
      vertex 0.1191513120252862 0.098590154216510614 -0.023164842277765274
      vertex 0.10673045434737663 -0.088015169281822001 0.019692329689860344
      vertex 0.10673045434737663 -0.088015169281822001 -0.019692273810505867
    endloop
  endfacet
  facet normal 0.83698234995691789 -0.54722988392502425 -0
    outer loop
      vertex 0.10673045434737663 -0.088015169281822001 0.019692329689860344
      vertex 0.077148484204344475 -0.1332604813782329 0.014787144027650356
      vertex 0.10673045434737663 -0.088015169281822001 -0.019692273810505867
    endloop
  endfacet
  facet normal -0.012819351916076265 -0.99813600414987158 0.05966725597996974
    outer loop
      vertex 0.02898320593552365 -0.13252046718074667 0.016818193718791008
      vertex 0.077148484204344475 -0.1332604813782329 0.014787144027650356
      vertex 0.054629782507259445 -0.13072309579134633 0.05239538848400116
    endloop
  endfacet
  facet normal 0.019873895122346781 -0.99797476841337407 -0.060426731691678816
    outer loop
      vertex 0.077148484204344475 -0.1332604813782329 0.014787144027650356
      vertex 0.02222377054836925 -0.13252046718074664 -0.01549884770065546
      vertex 0.041260896713984758 -0.12990096275109536 -0.052499979734420776
    endloop
  endfacet
  facet normal -0.20558548240248509 -0.97674356103687088 0.060882061383877382
    outer loop
      vertex 0.064739384068008748 -0.13425340193851087 -0.043045319616794586
      vertex 0.077148484204344475 -0.1332604813782329 0.014787144027650356
      vertex 0.041260896713984758 -0.12990096275109536 -0.052499979734420776
    endloop
  endfacet
  facet normal 0.59110425120471255 0.80659412494023131 0.0012968498827916827
    outer loop
      vertex 0.07556628591883055 0.13049414823913022 -0.00024771052994765341
      vertex 0.11900133428686203 0.09862459744631176 0.023772565647959709
      vertex 0.1191513120252862 0.098590154216510614 -0.023164842277765274
    endloop
  endfacet
  facet normal -0.015227891020896712 -0.99987897601790565 0.0031850671013595295
    outer loop
      vertex 0.02222377054836925 -0.13252046718074664 -0.01549884770065546
      vertex 0.077148484204344475 -0.1332604813782329 0.014787144027650356
      vertex 0.02898320593552365 -0.13252046718074667 0.016818193718791008
    endloop
  endfacet
  facet normal -0.2094846718549454 0.975563680089371 -0.066269739310708217
    outer loop
      vertex 0.043791183562800422 0.1278315585453646 0.061000019311904907
      vertex 0.054609060843058194 0.1297445708148747 0.054965376853942871
      vertex 0.07556628591883055 0.13049414823913022 -0.00024771052994765341
    endloop
  endfacet
  facet normal 0.016257672774148441 0.89958148738541521 0.43645026707451173
    outer loop
      vertex 0.054609060843058194 0.1297445708148747 0.054965376853942871
      vertex 0.033705048893986615 0.10051018472346213 0.1159999668598175
      vertex 0.061378801907052763 0.098203464166252377 0.11972358077764511
    endloop
  endfacet
  facet normal 0.098726669562769848 0.88388020392173983 0.45717483508205875
    outer loop
      vertex 0.054609060843058194 0.1297445708148747 0.054965376853942871
      vertex 0.043791183562800422 0.1278315585453646 0.061000019311904907
      vertex 0.033705048893986615 0.10051018472346213 0.1159999668598175
    endloop
  endfacet
  facet normal 0.28530663126509792 0.92785175707186218 -0.24019001447774518
    outer loop
      vertex 0.041429691867316008 0.1278315585453646 -0.051081985235214233
      vertex 0.07556628591883055 0.13049414823913022 -0.00024771052994765341
      vertex 0.085208060560731186 0.10049450883827607 -0.10468317568302155
    endloop
  endfacet
  facet normal 0.08712069402759795 0.91444589969773804 -0.39521978846983896
    outer loop
      vertex 0.041429691867316008 0.1278315585453646 -0.051081985235214233
      vertex 0.085208060560731186 0.10049450883827607 -0.10468317568302155
      vertex 0.033705048893986615 0.10051018472346213 -0.11600002646446228
    endloop
  endfacet
  facet normal -0.024248185752873942 0.999055943165293 -0.036045081686702826
    outer loop
      vertex 0.07556628591883055 0.13049414823913022 -0.00024771052994765341
      vertex 0.041429691867316008 0.1278315585453646 -0.051081985235214233
      vertex 0.026186498843878154 0.12992715428236992 0.017255691811442375
    endloop
  endfacet
endsolid OBJECT
