solid OBJECT
  facet normal 0 -1 -0
    outer loop
      vertex 6.20147705078125 -0.50287485122680664 0.35839492082595825
      vertex 7.4206771850585938 -0.50287485122680664 0.35839492082595825
      vertex 7.4206771850585938 -0.50287485122680664 0.43459492921829224
    endloop
  endfacet
  facet normal 0 -1 -0
    outer loop
      vertex 6.20147705078125 -0.50287485122680664 0.35839492082595825
      vertex 7.4206771850585938 -0.50287485122680664 0.43459492921829224
      vertex 6.20147705078125 -0.50287485122680664 0.43459492921829224
    endloop
  endfacet
  facet normal 1 -0 0
    outer loop
      vertex 7.4206771850585938 -0.50287485122680664 0.35839492082595825
      vertex 7.4206771850585938 1.9355251789093018 0.35839492082595825
      vertex 7.4206771850585938 1.9355251789093018 0.43459492921829224
    endloop
  endfacet
  facet normal 1 -0 0
    outer loop
      vertex 7.4206771850585938 -0.50287485122680664 0.35839492082595825
      vertex 7.4206771850585938 1.9355251789093018 0.43459492921829224
      vertex 7.4206771850585938 -0.50287485122680664 0.43459492921829224
    endloop
  endfacet
  facet normal 0 1 0
    outer loop
      vertex 7.4206771850585938 1.9355251789093018 0.35839492082595825
      vertex 6.20147705078125 1.9355251789093018 0.35839492082595825
      vertex 6.20147705078125 1.9355251789093018 0.43459492921829224
    endloop
  endfacet
  facet normal 0 1 0
    outer loop
      vertex 7.4206771850585938 1.9355251789093018 0.35839492082595825
      vertex 6.20147705078125 1.9355251789093018 0.43459492921829224
      vertex 7.4206771850585938 1.9355251789093018 0.43459492921829224
    endloop
  endfacet
  facet normal -1 -0 -0
    outer loop
      vertex 6.20147705078125 1.9355251789093018 0.35839492082595825
      vertex 6.20147705078125 -0.50287485122680664 0.35839492082595825
      vertex 6.20147705078125 -0.50287485122680664 0.43459492921829224
    endloop
  endfacet
  facet normal -1 -0 -0
    outer loop
      vertex 6.20147705078125 1.9355251789093018 0.35839492082595825
      vertex 6.20147705078125 -0.50287485122680664 0.43459492921829224
      vertex 6.20147705078125 1.9355251789093018 0.43459492921829224
    endloop
  endfacet
  facet normal 0 0 -1
    outer loop
      vertex 7.4206771850585938 -0.50287485122680664 0.35839492082595825
      vertex 6.20147705078125 -0.50287485122680664 0.35839492082595825
      vertex 6.20147705078125 1.9355251789093018 0.35839492082595825
    endloop
  endfacet
  facet normal -0 -0 -1
    outer loop
      vertex 6.20147705078125 1.9355251789093018 0.35839492082595825
      vertex 7.4206771850585938 1.9355251789093018 0.35839492082595825
      vertex 7.4206771850585938 -0.50287485122680664 0.35839492082595825
    endloop
  endfacet
  facet normal -0 -0 1
    outer loop
      vertex 7.4206771850585938 -0.50287485122680664 0.43459492921829224
      vertex 6.20147705078125 1.9355251789093018 0.43459492921829224
      vertex 6.20147705078125 -0.50287485122680664 0.43459492921829224
    endloop
  endfacet
  facet normal 0 0 1
    outer loop
      vertex 6.20147705078125 1.9355251789093018 0.43459492921829224
      vertex 7.4206771850585938 -0.50287485122680664 0.43459492921829224
      vertex 7.4206771850585938 1.9355251789093018 0.43459492921829224
    endloop
  endfacet
  facet normal 1.3689681211131436e-07 -3.7332695392234097e-08 0.99999999999999001
    outer loop
      vertex 1.371809720993042 -1.9230302572250366 -0.38202151656150818
      vertex -0.58748281002044678 -1.9230302572250366 -0.38202124834060669
      vertex -0.58748281002044678 -2.7213203907012939 -0.38202127814292908
    endloop
  endfacet
  facet normal 1.3689681211131436e-07 -3.7332695392234097e-08 0.99999999999999001
    outer loop
      vertex 1.371809720993042 -1.9230302572250366 -0.38202151656150818
      vertex -0.58748281002044678 -2.7213203907012939 -0.38202127814292908
      vertex 1.371809720993042 -2.7213203907012939 -0.38202154636383057
    endloop
  endfacet
  facet normal 1.368968121113141e-07 -7.4665368484792384e-08 0.99999999999998801
    outer loop
      vertex -0.58748281002044678 -0.72559481859207153 -0.38202115893363953
      vertex -0.58748281002044678 -1.1247400045394897 -0.38202118873596191
      vertex 1.371809720993042 -1.1247400045394897 -0.3820214569568634
    endloop
  endfacet
  facet normal 1.368968121113141e-07 -7.4665385209547885e-08 0.99999999999998812
    outer loop
      vertex 1.371809720993042 -0.32644972205162048 -0.38202139735221863
      vertex -0.58748281002044678 -0.32644972205162048 -0.38202112913131714
      vertex -0.58748281002044678 -0.72559481859207153 -0.38202115893363953
    endloop
  endfacet
  facet normal 1.3689681040773875e-07 -7.4665376847169189e-08 0.99999999999998801
    outer loop
      vertex 1.371809720993042 -1.1247400045394897 -0.3820214569568634
      vertex 1.371809720993042 -0.32644972205162048 -0.38202139735221863
      vertex -0.58748281002044678 -0.72559481859207153 -0.38202115893363953
    endloop
  endfacet
  facet normal 1.216860478063096e-07 -7.4665385209548004e-08 0.99999999999998967
    outer loop
      vertex -0.58748281002044678 -0.32644972205162048 -0.38202112913131714
      vertex -1.5671291351318359 -0.32644972205162048 -0.38202100992202759
      vertex -1.5671291351318359 -0.72559481859207153 -0.38202103972434998
    endloop
  endfacet
  facet normal 1.216860478063096e-07 -7.4665385209548004e-08 0.99999999999998967
    outer loop
      vertex -0.58748281002044678 -0.32644972205162048 -0.38202112913131714
      vertex -1.5671291351318359 -0.72559481859207153 -0.38202103972434998
      vertex -0.58748281002044678 -0.72559481859207153 -0.38202115893363953
    endloop
  endfacet
  facet normal 1.2168604780630997e-07 0 0.99999999999999267
    outer loop
      vertex -0.58748281002044678 -0.72559481859207153 -0.38202115893363953
      vertex -1.5671291351318359 -0.72559481859207153 -0.38202103972434998
      vertex -1.5671291351318359 -1.1247400045394897 -0.38202103972434998
    endloop
  endfacet
  facet normal 1.521075597578864e-07 -7.4665368484792212e-08 0.99999999999998568
    outer loop
      vertex -0.58748281002044678 -0.72559481859207153 -0.38202115893363953
      vertex -1.5671291351318359 -1.1247400045394897 -0.38202103972434998
      vertex -0.58748281002044678 -1.1247400045394897 -0.38202118873596191
    endloop
  endfacet
  facet normal 1.5210755975788682e-07 0 0.99999999999998845
    outer loop
      vertex -1.5671291351318359 -1.3243125677108765 -0.38202106952667236
      vertex -1.5671291351318359 -1.5238851308822632 -0.38202106952667236
      vertex -0.58748281002044678 -1.5238851308822632 -0.3820212185382843
    endloop
  endfacet
  facet normal 1.521075597578851e-07 -1.493307592692555e-07 0.99999999999997724
    outer loop
      vertex -0.58748281002044678 -1.1247400045394897 -0.38202118873596191
      vertex -1.5671291351318359 -1.1247400045394897 -0.38202103972434998
      vertex -1.5671291351318359 -1.3243125677108765 -0.38202106952667236
    endloop
  endfacet
  facet normal 1.3689680378209806e-07 -7.4665379634628556e-08 0.99999999999998801
    outer loop
      vertex -0.58748281002044678 -1.5238851308822632 -0.3820212185382843
      vertex -0.58748281002044678 -1.1247400045394897 -0.38202118873596191
      vertex -1.5671291351318359 -1.3243125677108765 -0.38202106952667236
    endloop
  endfacet
  facet normal 1.2168606261380463e-07 -1.4933075926925613e-07 0.99999999999998146
    outer loop
      vertex -1.5671291351318359 -1.1247400045394897 -0.38202103972434998
      vertex -2.0569522380828857 -1.1247400045394897 -0.3820209801197052
      vertex -2.0569522380828857 -1.3243125677108765 -0.38202100992202759
    endloop
  endfacet
  facet normal 1.2168606261380463e-07 -1.4933075926925613e-07 0.99999999999998146
    outer loop
      vertex -1.5671291351318359 -1.1247400045394897 -0.38202103972434998
      vertex -2.0569522380828857 -1.3243125677108765 -0.38202100992202759
      vertex -1.5671291351318359 -1.3243125677108765 -0.38202106952667236
    endloop
  endfacet
  facet normal 1.2168606261380598e-07 0 0.99999999999999256
    outer loop
      vertex -1.5671291351318359 -1.3243125677108765 -0.38202106952667236
      vertex -2.0569522380828857 -1.3243125677108765 -0.38202100992202759
      vertex -2.0569522380828857 -1.5238851308822632 -0.38202100992202759
    endloop
  endfacet
  facet normal 1.2168606261380598e-07 0 0.99999999999999256
    outer loop
      vertex -1.5671291351318359 -1.3243125677108765 -0.38202106952667236
      vertex -2.0569522380828857 -1.5238851308822632 -0.38202100992202759
      vertex -1.5671291351318359 -1.5238851308822632 -0.38202106952667236
    endloop
  endfacet
  facet normal 1.521075597578864e-07 -7.4665379634628384e-08 0.99999999999998579
    outer loop
      vertex -0.58748281002044678 -1.5238851308822632 -0.3820212185382843
      vertex -1.5671291351318359 -1.5238851308822632 -0.38202106952667236
      vertex -1.5671291351318359 -1.9230302572250366 -0.38202109932899475
    endloop
  endfacet
  facet normal 1.521075597578864e-07 -7.4665379634628384e-08 0.99999999999998579
    outer loop
      vertex -0.58748281002044678 -1.5238851308822632 -0.3820212185382843
      vertex -1.5671291351318359 -1.9230302572250366 -0.38202109932899475
      vertex -0.58748281002044678 -1.9230302572250366 -0.38202124834060669
    endloop
  endfacet
  facet normal 1.368968121113141e-07 -7.4665379634628542e-08 0.99999999999998801
    outer loop
      vertex -0.58748281002044678 -1.5238851308822632 -0.3820212185382843
      vertex -0.58748281002044678 -1.9230302572250366 -0.38202124834060669
      vertex 1.371809720993042 -1.9230302572250366 -0.38202151656150818
    endloop
  endfacet
  facet normal 1.368968121113141e-07 -7.4665379634628556e-08 0.99999999999998801
    outer loop
      vertex 1.371809720993042 -1.1247400045394897 -0.3820214569568634
      vertex -0.58748281002044678 -1.1247400045394897 -0.38202118873596191
      vertex -0.58748281002044678 -1.5238851308822632 -0.3820212185382843
    endloop
  endfacet
  facet normal 1.368968121113141e-07 -7.4665379634628556e-08 0.99999999999998801
    outer loop
      vertex 1.371809720993042 -1.9230302572250366 -0.38202151656150818
      vertex 1.371809720993042 -1.1247400045394897 -0.3820214569568634
      vertex -0.58748281002044678 -1.5238851308822632 -0.3820212185382843
    endloop
  endfacet
  facet normal 1.368968121113141e-07 -7.4665374059710046e-08 0.99999999999998801
    outer loop
      vertex -0.58748281002044678 0.87098568677902222 -0.38202103972434998
      vertex -0.58748281002044678 0.47184053063392639 -0.38202106952667236
      vertex 1.371809720993042 0.47184053063392639 -0.38202133774757385
    endloop
  endfacet
  facet normal 1.2168605521005754e-07 0 0.99999999999999267
    outer loop
      vertex 1.371809720993042 1.2701307535171509 -0.38202127814292908
      vertex -0.58748281002044678 1.2701307535171509 -0.38202103972434998
      vertex -0.58748281002044678 0.87098568677902222 -0.38202103972434998
    endloop
  endfacet
  facet normal 1.3689681040773862e-07 -7.4665382422088108e-08 0.99999999999998801
    outer loop
      vertex 1.371809720993042 0.47184053063392639 -0.38202133774757385
      vertex 1.371809720993042 1.2701307535171509 -0.38202127814292908
      vertex -0.58748281002044678 0.87098568677902222 -0.38202103972434998
    endloop
  endfacet
  facet normal 1.2168604780630862e-07 -1.4933080386862078e-07 0.99999999999998157
    outer loop
      vertex -1.5671291351318359 1.0705581903457642 -0.38202089071273804
      vertex -1.5671291351318359 0.87098568677902222 -0.38202092051506042
      vertex -0.58748281002044678 0.87098568677902222 -0.38202103972434998
    endloop
  endfacet
  facet normal 1.5210755975788682e-07 0 0.99999999999998845
    outer loop
      vertex -0.58748281002044678 1.2701307535171509 -0.38202103972434998
      vertex -1.5671291351318359 1.2701307535171509 -0.38202089071273804
      vertex -1.5671291351318359 1.0705581903457642 -0.38202089071273804
    endloop
  endfacet
  facet normal 1.5210755975788682e-07 -0 0.99999999999998845
    outer loop
      vertex -0.58748281002044678 0.87098568677902222 -0.38202103972434998
      vertex -0.58748281002044678 1.2701307535171509 -0.38202103972434998
      vertex -1.5671291351318359 1.0705581903457642 -0.38202089071273804
    endloop
  endfacet
  facet normal 1.2168606261380598e-07 0 0.99999999999999256
    outer loop
      vertex -1.5671291351318359 1.2701307535171509 -0.38202089071273804
      vertex -2.0569522380828857 1.2701307535171509 -0.38202083110809326
      vertex -2.0569522380828857 1.0705581903457642 -0.38202083110809326
    endloop
  endfacet
  facet normal 1.2168606261380598e-07 0 0.99999999999999256
    outer loop
      vertex -1.5671291351318359 1.2701307535171509 -0.38202089071273804
      vertex -2.0569522380828857 1.0705581903457642 -0.38202083110809326
      vertex -1.5671291351318359 1.0705581903457642 -0.38202089071273804
    endloop
  endfacet
  facet normal 1.2168606261380463e-07 -1.4933080386862075e-07 0.99999999999998157
    outer loop
      vertex -1.5671291351318359 1.0705581903457642 -0.38202089071273804
      vertex -2.0569522380828857 1.0705581903457642 -0.38202083110809326
      vertex -2.0569522380828857 0.87098568677902222 -0.38202086091041565
    endloop
  endfacet
  facet normal 1.2168606261380463e-07 -1.4933080386862078e-07 0.99999999999998157
    outer loop
      vertex -1.5671291351318359 1.0705581903457642 -0.38202089071273804
      vertex -2.0569522380828857 0.87098568677902222 -0.38202086091041565
      vertex -1.5671291351318359 0.87098568677902222 -0.38202092051506042
    endloop
  endfacet
  facet normal 1.2168604780630962e-07 -7.4665374059710179e-08 0.99999999999998979
    outer loop
      vertex -0.58748281002044678 0.87098568677902222 -0.38202103972434998
      vertex -1.5671291351318359 0.87098568677902222 -0.38202092051506042
      vertex -1.5671291351318359 0.47184053063392639 -0.38202095031738281
    endloop
  endfacet
  facet normal 1.2168604780630962e-07 -7.4665374059710179e-08 0.99999999999998979
    outer loop
      vertex -0.58748281002044678 0.87098568677902222 -0.38202103972434998
      vertex -1.5671291351318359 0.47184053063392639 -0.38202095031738281
      vertex -0.58748281002044678 0.47184053063392639 -0.38202106952667236
    endloop
  endfacet
  facet normal 1.368968121113141e-07 -7.4665379634628542e-08 0.99999999999998801
    outer loop
      vertex 1.371809720993042 0.47184053063392639 -0.38202133774757385
      vertex -0.58748281002044678 0.47184053063392639 -0.38202106952667236
      vertex -0.58748281002044678 -0.32644972205162048 -0.38202112913131714
    endloop
  endfacet
  facet normal 1.368968121113141e-07 -7.4665379634628542e-08 0.99999999999998801
    outer loop
      vertex 1.371809720993042 0.47184053063392639 -0.38202133774757385
      vertex -0.58748281002044678 -0.32644972205162048 -0.38202112913131714
      vertex 1.371809720993042 -0.32644972205162048 -0.38202139735221863
    endloop
  endfacet
  facet normal 1.521075597578864e-07 -7.4665357334959376e-08 0.99999999999998579
    outer loop
      vertex -0.58748281002044678 2.0684211254119873 -0.3820209801197052
      vertex -1.5671291351318359 2.0684211254119873 -0.38202083110809326
      vertex -1.5671291351318359 1.6692758798599243 -0.38202086091041565
    endloop
  endfacet
  facet normal 1.5210755975788643e-07 -7.4665357334959389e-08 0.9999999999999859
    outer loop
      vertex -0.58748281002044678 2.0684211254119873 -0.3820209801197052
      vertex -1.5671291351318359 1.6692758798599243 -0.38202086091041565
      vertex -0.58748281002044678 1.6692758798599243 -0.38202100992202759
    endloop
  endfacet
  facet normal 1.521075597578864e-07 -7.4665379634628384e-08 0.99999999999998579
    outer loop
      vertex -0.58748281002044678 1.6692758798599243 -0.38202100992202759
      vertex -1.5671291351318359 1.6692758798599243 -0.38202086091041565
      vertex -1.5671291351318359 1.2701307535171509 -0.38202089071273804
    endloop
  endfacet
  facet normal 1.521075597578864e-07 -7.4665379634628384e-08 0.99999999999998579
    outer loop
      vertex -0.58748281002044678 1.6692758798599243 -0.38202100992202759
      vertex -1.5671291351318359 1.2701307535171509 -0.38202089071273804
      vertex -0.58748281002044678 1.2701307535171509 -0.38202103972434998
    endloop
  endfacet
  facet normal 1.2168605521005717e-07 -7.4665379634628675e-08 0.99999999999998979
    outer loop
      vertex -0.58748281002044678 1.6692758798599243 -0.38202100992202759
      vertex -0.58748281002044678 1.2701307535171509 -0.38202103972434998
      vertex 1.371809720993042 1.2701307535171509 -0.38202127814292908
    endloop
  endfacet
  facet normal 1.368968121113141e-07 -7.4665357334959548e-08 0.99999999999998812
    outer loop
      vertex 1.371809720993042 2.0684211254119873 -0.38202124834060669
      vertex -0.58748281002044678 2.0684211254119873 -0.3820209801197052
      vertex -0.58748281002044678 1.6692758798599243 -0.38202100992202759
    endloop
  endfacet
  facet normal 1.2929143479640267e-07 -3.7332684242396305e-08 0.99999999999999101
    outer loop
      vertex 1.371809720993042 1.2701307535171509 -0.38202127814292908
      vertex 1.371809720993042 2.0684211254119873 -0.38202124834060669
      vertex -0.58748281002044678 1.6692758798599243 -0.38202100992202759
    endloop
  endfacet
  facet normal 1.3689681211131436e-07 -3.7332710260219243e-08 0.99999999999999001
    outer loop
      vertex 5.2903947830200195 -1.1247400045394897 -0.38202199339866638
      vertex 1.371809720993042 -1.1247400045394897 -0.3820214569568634
      vertex 3.3311021327972412 -1.9230302572250366 -0.38202175498008728
    endloop
  endfacet
  facet normal 1.2168606261380564e-07 -7.4665379634628688e-08 0.99999999999998979
    outer loop
      vertex 1.371809720993042 -1.1247400045394897 -0.3820214569568634
      vertex 1.371809720993042 -1.9230302572250366 -0.38202151656150818
      vertex 3.3311021327972412 -1.9230302572250366 -0.38202175498008728
    endloop
  endfacet
  facet normal 1.3689680378209835e-07 -3.7332689817314351e-08 0.99999999999999012
    outer loop
      vertex 3.3311021327972412 -1.9230302572250366 -0.38202175498008728
      vertex 5.2903947830200195 -1.9230302572250366 -0.38202202320098877
      vertex 5.2903947830200195 -1.1247400045394897 -0.38202199339866638
    endloop
  endfacet
  facet normal 1.368968121113141e-07 -7.4665376847169189e-08 0.99999999999998801
    outer loop
      vertex 5.2903947830200195 -1.1247400045394897 -0.38202199339866638
      vertex 5.2903947830200195 -0.32644972205162048 -0.38202193379402161
      vertex 1.371809720993042 -0.32644972205162048 -0.38202139735221863
    endloop
  endfacet
  facet normal 1.368968121113141e-07 -7.4665376847169189e-08 0.99999999999998801
    outer loop
      vertex 5.2903947830200195 -1.1247400045394897 -0.38202199339866638
      vertex 1.371809720993042 -0.32644972205162048 -0.38202139735221863
      vertex 1.371809720993042 -1.1247400045394897 -0.3820214569568634
    endloop
  endfacet
  facet normal 1.3689682044053111e-07 -7.4665382422088108e-08 0.99999999999998801
    outer loop
      vertex 3.3311021327972412 1.2701307535171509 -0.38202154636383057
      vertex 1.371809720993042 1.2701307535171509 -0.38202127814292908
      vertex 1.371809720993042 0.47184053063392639 -0.38202133774757385
    endloop
  endfacet
  facet normal 1.368968121113141e-07 -7.4665379634628542e-08 0.99999999999998801
    outer loop
      vertex 1.371809720993042 0.47184053063392639 -0.38202133774757385
      vertex 1.371809720993042 -0.32644972205162048 -0.38202139735221863
      vertex 5.2903947830200195 -0.32644972205162048 -0.38202193379402161
    endloop
  endfacet
  facet normal 1.3689680378209809e-07 -7.4665381028358312e-08 0.99999999999998812
    outer loop
      vertex 5.2903947830200195 -0.32644972205162048 -0.38202193379402161
      vertex 5.2903947830200195 1.2701307535171509 -0.38202181458473206
      vertex 3.3311021327972412 1.2701307535171509 -0.38202154636383057
    endloop
  endfacet
  facet normal 1.368968145091474e-07 -7.4665367864331062e-08 0.99999999999998812
    outer loop
      vertex 3.3311021327972412 1.2701307535171509 -0.38202154636383057
      vertex 1.371809720993042 0.47184053063392639 -0.38202133774757385
      vertex 5.2903947830200195 -0.32644972205162048 -0.38202193379402161
    endloop
  endfacet
  facet normal 1.2168603299881718e-07 -7.4665379634628675e-08 0.99999999999998979
    outer loop
      vertex 4.3107485771179199 2.4675662517547607 -0.38202160596847534
      vertex 3.3311021327972412 2.4675662517547607 -0.38202148675918579
      vertex 3.3311021327972412 2.0684211254119873 -0.38202151656150818
    endloop
  endfacet
  facet normal 1.2168603299881718e-07 -7.4665379634628675e-08 0.99999999999998979
    outer loop
      vertex 4.3107485771179199 2.4675662517547607 -0.38202160596847534
      vertex 3.3311021327972412 2.0684211254119873 -0.38202151656150818
      vertex 4.3107485771179199 2.0684211254119873 -0.38202163577079773
    endloop
  endfacet
  facet normal 1.5210757826725645e-07 -7.4665379634628384e-08 0.99999999999998579
    outer loop
      vertex 5.2903947830200195 2.4675662517547607 -0.38202175498008728
      vertex 4.3107485771179199 2.4675662517547607 -0.38202160596847534
      vertex 4.3107485771179199 2.0684211254119873 -0.38202163577079773
    endloop
  endfacet
  facet normal 1.2168606261380598e-07 0 0.99999999999999256
    outer loop
      vertex 5.2903947830200195 2.4675662517547607 -0.38202175498008728
      vertex 4.3107485771179199 2.0684211254119873 -0.38202163577079773
      vertex 5.2903947830200195 2.0684211254119873 -0.38202175498008728
    endloop
  endfacet
  facet normal 1.2168606261380598e-07 0 0.99999999999999256
    outer loop
      vertex 3.3311021327972412 2.6671388149261475 -0.3820214569568634
      vertex 2.8412790298461914 2.6671388149261475 -0.38202139735221863
      vertex 2.8412790298461914 2.4675662517547607 -0.38202139735221863
    endloop
  endfacet
  facet normal 1.8252909392070528e-07 -1.4933075926925476e-07 0.99999999999997224
    outer loop
      vertex 3.3311021327972412 2.6671388149261475 -0.3820214569568634
      vertex 2.8412790298461914 2.4675662517547607 -0.38202139735221863
      vertex 3.3311021327972412 2.4675662517547607 -0.38202148675918579
    endloop
  endfacet
  facet normal 1.2168606261380564e-07 -7.4665379634628688e-08 0.99999999999998979
    outer loop
      vertex 2.3514559268951416 2.4675662517547607 -0.38202133774757385
      vertex 1.371809720993042 2.4675662517547607 -0.3820212185382843
      vertex 1.371809720993042 2.0684211254119873 -0.38202124834060669
    endloop
  endfacet
  facet normal 1.2168606261380564e-07 -7.4665379634628675e-08 0.99999999999998979
    outer loop
      vertex 2.3514559268951416 2.4675662517547607 -0.38202133774757385
      vertex 1.371809720993042 2.0684211254119873 -0.38202124834060669
      vertex 2.3514559268951416 2.0684211254119873 -0.38202136754989624
    endloop
  endfacet
  facet normal 1.2168606261380564e-07 -7.4665379634628661e-08 0.99999999999998979
    outer loop
      vertex 2.8412790298461914 2.4675662517547607 -0.38202139735221863
      vertex 2.3514559268951416 2.4675662517547607 -0.38202133774757385
      vertex 2.3514559268951416 2.0684211254119873 -0.38202136754989624
    endloop
  endfacet
  facet normal 1.8252909392070681e-07 -7.4665379634628e-08 0.99999999999998068
    outer loop
      vertex 3.3311021327972412 2.0684211254119873 -0.38202151656150818
      vertex 3.3311021327972412 2.4675662517547607 -0.38202148675918579
      vertex 2.8412790298461914 2.4675662517547607 -0.38202139735221863
    endloop
  endfacet
  facet normal 1.5210757826725592e-07 -1.1199806945194218e-07 0.99999999999998224
    outer loop
      vertex 2.3514559268951416 2.0684211254119873 -0.38202136754989624
      vertex 3.3311021327972412 2.0684211254119873 -0.38202151656150818
      vertex 2.8412790298461914 2.4675662517547607 -0.38202139735221863
    endloop
  endfacet
  facet normal 1.2168606261380593e-07 -3.7332684242396344e-08 0.99999999999999212
    outer loop
      vertex 2.3514559268951416 2.0684211254119873 -0.38202136754989624
      vertex 1.371809720993042 2.0684211254119873 -0.38202124834060669
      vertex 1.371809720993042 1.2701307535171509 -0.38202127814292908
    endloop
  endfacet
  facet normal 1.5210757826725674e-07 -3.7332684242396186e-08 0.99999999999998779
    outer loop
      vertex 3.3311021327972412 1.2701307535171509 -0.38202154636383057
      vertex 3.3311021327972412 2.0684211254119873 -0.38202151656150818
      vertex 2.3514559268951416 2.0684211254119873 -0.38202136754989624
    endloop
  endfacet
  facet normal 1.3689682044053124e-07 -5.5999026363594344e-08 0.99999999999998901
    outer loop
      vertex 1.371809720993042 1.2701307535171509 -0.38202127814292908
      vertex 3.3311021327972412 1.2701307535171509 -0.38202154636383057
      vertex 2.3514559268951416 2.0684211254119873 -0.38202136754989624
    endloop
  endfacet
  facet normal 1.2168603299881747e-07 -3.7332684242396344e-08 0.99999999999999212
    outer loop
      vertex 4.3107485771179199 2.0684211254119873 -0.38202163577079773
      vertex 3.3311021327972412 2.0684211254119873 -0.38202151656150818
      vertex 3.3311021327972412 1.2701307535171509 -0.38202154636383057
    endloop
  endfacet
  facet normal 1.2168606261380564e-07 -7.4665368484792503e-08 0.99999999999998967
    outer loop
      vertex 5.2903947830200195 1.2701307535171509 -0.38202181458473206
      vertex 5.2903947830200195 2.0684211254119873 -0.38202175498008728
      vertex 4.3107485771179199 2.0684211254119873 -0.38202163577079773
    endloop
  endfacet
  facet normal 1.3689680378209822e-07 -5.5999046806494929e-08 0.99999999999998912
    outer loop
      vertex 3.3311021327972412 1.2701307535171509 -0.38202154636383057
      vertex 5.2903947830200195 1.2701307535171509 -0.38202181458473206
      vertex 4.3107485771179199 2.0684211254119873 -0.38202163577079773
    endloop
  endfacet
  facet normal 1.216861218438258e-07 -7.466540193431101e-08 0.99999999999998979
    outer loop
      vertex 9.208979606628418 -1.9230302572250366 -0.38202255964279175
      vertex 8.2293338775634766 -1.9230302572250366 -0.3820224404335022
      vertex 8.2293338775634766 -2.3221752643585205 -0.38202247023582458
    endloop
  endfacet
  facet normal 1.216861218438258e-07 -7.466540193431101e-08 0.99999999999998979
    outer loop
      vertex 9.208979606628418 -1.9230302572250366 -0.38202255964279175
      vertex 8.2293338775634766 -2.3221752643585205 -0.38202247023582458
      vertex 9.208979606628418 -2.3221752643585205 -0.38202258944511414
    endloop
  endfacet
  facet normal 1.521075042298033e-07 -7.4665401934310705e-08 0.99999999999998579
    outer loop
      vertex 8.2293338775634766 -1.9230302572250366 -0.3820224404335022
      vertex 7.2496871948242188 -1.9230302572250366 -0.38202229142189026
      vertex 7.2496871948242188 -2.3221752643585205 -0.38202232122421265
    endloop
  endfacet
  facet normal 1.5210750422980332e-07 -7.4665401934310705e-08 0.99999999999998579
    outer loop
      vertex 8.2293338775634766 -1.9230302572250366 -0.3820224404335022
      vertex 7.2496871948242188 -2.3221752643585205 -0.38202232122421265
      vertex 8.2293338775634766 -2.3221752643585205 -0.38202247023582458
    endloop
  endfacet
  facet normal 1.3689682044053111e-07 -7.4665376847169189e-08 0.99999999999998801
    outer loop
      vertex 9.208979606628418 -0.32644972205162048 -0.38202247023582458
      vertex 7.2496871948242188 -0.32644972205162048 -0.3820222020149231
      vertex 7.2496871948242188 -1.1247400045394897 -0.38202226161956787
    endloop
  endfacet
  facet normal 1.2168606261380593e-07 -3.7332688423584753e-08 0.99999999999999212
    outer loop
      vertex 9.208979606628418 -0.32644972205162048 -0.38202247023582458
      vertex 7.2496871948242188 -1.1247400045394897 -0.38202226161956787
      vertex 9.208979606628418 -1.1247400045394897 -0.38202250003814697
    endloop
  endfacet
  facet normal 1.3689682044053111e-07 -7.4665376847169189e-08 0.99999999999998801
    outer loop
      vertex 7.2496871948242188 -0.32644972205162048 -0.3820222020149231
      vertex 5.2903947830200195 -0.32644972205162048 -0.38202193379402161
      vertex 5.2903947830200195 -1.1247400045394897 -0.38202199339866638
    endloop
  endfacet
  facet normal 1.3689682044053111e-07 -7.4665376847169189e-08 0.99999999999998801
    outer loop
      vertex 7.2496871948242188 -0.32644972205162048 -0.3820222020149231
      vertex 5.2903947830200195 -1.1247400045394897 -0.38202199339866638
      vertex 7.2496871948242188 -1.1247400045394897 -0.38202226161956787
    endloop
  endfacet
  facet normal 1.368968204405314e-07 -3.7332689817314357e-08 0.99999999999999012
    outer loop
      vertex 7.2496871948242188 -1.1247400045394897 -0.38202226161956787
      vertex 5.2903947830200195 -1.1247400045394897 -0.38202199339866638
      vertex 5.2903947830200195 -1.9230302572250366 -0.38202202320098877
    endloop
  endfacet
  facet normal 1.368968204405314e-07 -3.7332689817314357e-08 0.99999999999999012
    outer loop
      vertex 7.2496871948242188 -1.1247400045394897 -0.38202226161956787
      vertex 5.2903947830200195 -1.9230302572250366 -0.38202202320098877
      vertex 7.2496871948242188 -1.9230302572250366 -0.38202229142189026
    endloop
  endfacet
  facet normal 1.2168612184382583e-07 -7.4665379634628688e-08 0.9999999999999899
    outer loop
      vertex 8.2293338775634766 -1.9230302572250366 -0.3820224404335022
      vertex 9.208979606628418 -1.9230302572250366 -0.38202255964279175
      vertex 9.208979606628418 -1.1247400045394897 -0.38202250003814697
    endloop
  endfacet
  facet normal 1.5210750422980364e-07 -3.7332689817314271e-08 0.9999999999999879
    outer loop
      vertex 7.2496871948242188 -1.1247400045394897 -0.38202226161956787
      vertex 7.2496871948242188 -1.9230302572250366 -0.38202229142189026
      vertex 8.2293338775634766 -1.9230302572250366 -0.3820224404335022
    endloop
  endfacet
  facet normal 1.2168606261380564e-07 -7.4665306948740189e-08 0.99999999999998979
    outer loop
      vertex 9.208979606628418 -1.1247400045394897 -0.38202250003814697
      vertex 7.2496871948242188 -1.1247400045394897 -0.38202226161956787
      vertex 8.2293338775634766 -1.9230302572250366 -0.3820224404335022
    endloop
  endfacet
  facet normal 1.3689682044053111e-07 -7.4665381028358299e-08 0.99999999999998801
    outer loop
      vertex 7.2496871948242188 1.2701307535171509 -0.38202208280563354
      vertex 5.2903947830200195 1.2701307535171509 -0.38202181458473206
      vertex 5.2903947830200195 -0.32644972205162048 -0.38202193379402161
    endloop
  endfacet
  facet normal 1.3689682044053111e-07 -7.4665381028358299e-08 0.99999999999998801
    outer loop
      vertex 7.2496871948242188 1.2701307535171509 -0.38202208280563354
      vertex 5.2903947830200195 -0.32644972205162048 -0.38202193379402161
      vertex 7.2496871948242188 -0.32644972205162048 -0.3820222020149231
    endloop
  endfacet
  facet normal 1.3689682044053111e-07 -7.4665381028358299e-08 0.99999999999998801
    outer loop
      vertex 7.2496871948242188 -0.32644972205162048 -0.3820222020149231
      vertex 9.208979606628418 -0.32644972205162048 -0.38202247023582458
      vertex 9.208979606628418 1.2701307535171509 -0.38202235102653503
    endloop
  endfacet
  facet normal 1.3689682044053111e-07 -7.4665381028358299e-08 0.99999999999998801
    outer loop
      vertex 7.2496871948242188 -0.32644972205162048 -0.3820222020149231
      vertex 9.208979606628418 1.2701307535171509 -0.38202235102653503
      vertex 7.2496871948242188 1.2701307535171509 -0.38202208280563354
    endloop
  endfacet
  facet normal 1.2168612184382617e-07 0 0.99999999999999267
    outer loop
      vertex 5.7802176475524902 2.4675662517547607 -0.38202181458473206
      vertex 5.2903947830200195 2.4675662517547607 -0.38202175498008728
      vertex 5.2903947830200195 2.0684211254119873 -0.38202175498008728
    endloop
  endfacet
  facet normal 1.2168600338384315e-07 -7.4665379634628675e-08 0.99999999999998979
    outer loop
      vertex 6.2700409889221191 2.0684211254119873 -0.38202190399169922
      vertex 6.2700409889221191 2.4675662517547607 -0.38202187418937683
      vertex 5.7802176475524902 2.4675662517547607 -0.38202181458473206
    endloop
  endfacet
  facet normal 1.5210757826725674e-07 -3.7332598959953648e-08 0.99999999999998768
    outer loop
      vertex 5.2903947830200195 2.0684211254119873 -0.38202175498008728
      vertex 6.2700409889221191 2.0684211254119873 -0.38202190399169922
      vertex 5.7802176475524902 2.4675662517547607 -0.38202181458473206
    endloop
  endfacet
  facet normal 1.2168606261380564e-07 -7.4665379634628688e-08 0.99999999999998979
    outer loop
      vertex 7.2496871948242188 2.4675662517547607 -0.38202199339866638
      vertex 6.2700409889221191 2.4675662517547607 -0.38202187418937683
      vertex 6.2700409889221191 2.0684211254119873 -0.38202190399169922
    endloop
  endfacet
  facet normal 1.2168606261380564e-07 -7.4665379634628675e-08 0.99999999999998979
    outer loop
      vertex 7.2496871948242188 2.4675662517547607 -0.38202199339866638
      vertex 6.2700409889221191 2.0684211254119873 -0.38202190399169922
      vertex 7.2496871948242188 2.0684211254119873 -0.38202202320098877
    endloop
  endfacet
  facet normal 1.5210757826725645e-07 -7.4665368484792225e-08 0.99999999999998579
    outer loop
      vertex 6.2700409889221191 2.0684211254119873 -0.38202190399169922
      vertex 5.2903947830200195 2.0684211254119873 -0.38202175498008728
      vertex 5.2903947830200195 1.2701307535171509 -0.38202181458473206
    endloop
  endfacet
  facet normal 1.2168606261380564e-07 -7.4665368484792503e-08 0.99999999999998967
    outer loop
      vertex 7.2496871948242188 1.2701307535171509 -0.38202208280563354
      vertex 7.2496871948242188 2.0684211254119873 -0.38202202320098877
      vertex 6.2700409889221191 2.0684211254119873 -0.38202190399169922
    endloop
  endfacet
  facet normal 1.3689682044053124e-07 -5.5999026363594344e-08 0.99999999999998901
    outer loop
      vertex 5.2903947830200195 1.2701307535171509 -0.38202181458473206
      vertex 7.2496871948242188 1.2701307535171509 -0.38202208280563354
      vertex 6.2700409889221191 2.0684211254119873 -0.38202190399169922
    endloop
  endfacet
  facet normal 1.3689682044053114e-07 -7.4665368484792397e-08 0.99999999999998812
    outer loop
      vertex 9.208979606628418 2.0684211254119873 -0.38202229142189026
      vertex 7.2496871948242188 2.0684211254119873 -0.38202202320098877
      vertex 7.2496871948242188 1.2701307535171509 -0.38202208280563354
    endloop
  endfacet
  facet normal 1.3689682044053114e-07 -7.4665368484792397e-08 0.99999999999998812
    outer loop
      vertex 9.208979606628418 2.0684211254119873 -0.38202229142189026
      vertex 7.2496871948242188 1.2701307535171509 -0.38202208280563354
      vertex 9.208979606628418 1.2701307535171509 -0.38202235102653503
    endloop
  endfacet
  facet normal 1.521075042298033e-07 -7.4665401934310705e-08 0.99999999999998579
    outer loop
      vertex 12.147918701171875 -1.9230302572250366 -0.38202297687530518
      vertex 11.168272018432617 -1.9230302572250366 -0.38202282786369324
      vertex 11.168272018432617 -2.3221752643585205 -0.38202285766601562
    endloop
  endfacet
  facet normal 1.2168600338384349e-07 -0 0.99999999999999267
    outer loop
      vertex 12.147918701171875 -1.9230302572250366 -0.38202297687530518
      vertex 11.168272018432617 -2.3221752643585205 -0.38202285766601562
      vertex 12.147918701171875 -2.3221752643585205 -0.38202297687530518
    endloop
  endfacet
  facet normal 1.3689682044053137e-07 -3.7332688423584674e-08 0.99999999999999001
    outer loop
      vertex 11.168272018432617 -0.32644972205162048 -0.38202273845672607
      vertex 9.208979606628418 -0.32644972205162048 -0.38202247023582458
      vertex 9.208979606628418 -1.1247400045394897 -0.38202250003814697
    endloop
  endfacet
  facet normal 1.3689682044053137e-07 -3.7332688423584674e-08 0.99999999999999001
    outer loop
      vertex 11.168272018432617 -0.32644972205162048 -0.38202273845672607
      vertex 9.208979606628418 -1.1247400045394897 -0.38202250003814697
      vertex 11.168272018432617 -1.1247400045394897 -0.38202276825904846
    endloop
  endfacet
  facet normal 1.3689682044053111e-07 -7.4665379634628542e-08 0.99999999999998801
    outer loop
      vertex 11.168272018432617 -1.1247400045394897 -0.38202276825904846
      vertex 9.208979606628418 -1.1247400045394897 -0.38202250003814697
      vertex 9.208979606628418 -1.9230302572250366 -0.38202255964279175
    endloop
  endfacet
  facet normal 1.3689682044053111e-07 -7.4665379634628542e-08 0.99999999999998801
    outer loop
      vertex 11.168272018432617 -1.1247400045394897 -0.38202276825904846
      vertex 9.208979606628418 -1.9230302572250366 -0.38202255964279175
      vertex 11.168272018432617 -1.9230302572250366 -0.38202282786369324
    endloop
  endfacet
  facet normal 1.141526581358246e-07 -7.9100215015477051e-08 0.99999999999999045
    outer loop
      vertex -2.2407052516937256 -1.4122997522354126 -0.3820209801197052
      vertex -2.2407052516937256 -2.5425996780395508 -0.38202106952667236
      vertex -2.0569522380828857 -1.5238851308822632 -0.38202100992202759
    endloop
  endfacet
  facet normal 1.2168606261380564e-07 -7.4665379634628688e-08 0.99999999999998979
    outer loop
      vertex -1.5671291351318359 -1.5238851308822632 -0.38202106952667236
      vertex -2.0569522380828857 -1.5238851308822632 -0.38202100992202759
      vertex -1.5671291351318359 -1.9230302572250366 -0.38202109932899475
    endloop
  endfacet
  facet normal 1.1756993268541537e-07 -7.971661388655938e-08 0.9999999999999899
    outer loop
      vertex -2.2407052516937256 -2.5425996780395508 -0.38202106952667236
      vertex -1.5671291351318359 -1.9230302572250366 -0.38202109932899475
      vertex -2.0569522380828857 -1.5238851308822632 -0.38202100992202759
    endloop
  endfacet
  facet normal 1.1636230941017228e-07 -7.84037243721953e-08 0.99999999999999023
    outer loop
      vertex -1.5671291351318359 -1.9230302572250366 -0.38202109932899475
      vertex -2.2407052516937256 -2.5425996780395508 -0.38202106952667236
      vertex -1.4723553657531738 -2.5425996780395508 -0.38202115893363953
    endloop
  endfacet
  facet normal 2.1640095810177057e-07 -1.4933075926925375e-07 0.99999999999996558
    outer loop
      vertex -2.3931052684783936 -1.4122997522354126 -0.38202095031738281
      vertex -2.0569522380828857 -1.3243125677108765 -0.38202100992202759
      vertex -2.0569522380828857 -1.1247400045394897 -0.3820209801197052
    endloop
  endfacet
  facet normal 1.6218684963073086e-07 -0 0.9999999999999869
    outer loop
      vertex -2.0569522380828857 -1.3243125677108765 -0.38202100992202759
      vertex -2.2407052516937256 -1.4122997522354126 -0.3820209801197052
      vertex -2.0569522380828857 -1.5238851308822632 -0.38202100992202759
    endloop
  endfacet
  facet normal 1.2168606261380598e-07 -0 0.99999999999999267
    outer loop
      vertex -1.5671291351318359 -0.72559481859207153 -0.38202103972434998
      vertex -2.0569522380828857 -1.1247400045394897 -0.3820209801197052
      vertex -1.5671291351318359 -1.1247400045394897 -0.38202103972434998
    endloop
  endfacet
  facet normal 1.8252910754931193e-07 -7.4665385209547329e-08 0.99999999999998068
    outer loop
      vertex -1.5671291351318359 -0.32644972205162048 -0.38202100992202759
      vertex -2.0569522380828857 -1.1247400045394897 -0.3820209801197052
      vertex -1.5671291351318359 -0.72559481859207153 -0.38202103972434998
    endloop
  endfacet
  facet normal 1.9555327496980237e-07 -6.9682661658141666e-08 0.99999999999997846
    outer loop
      vertex -2.2407052516937256 -1.4122997522354126 -0.3820209801197052
      vertex -2.0569522380828857 -1.3243125677108765 -0.38202100992202759
      vertex -2.3931052684783936 -1.4122997522354126 -0.38202095031738281
    endloop
  endfacet
  facet normal 1.409334754583184e-07 -6.1110404403233693e-08 0.99999999999998823
    outer loop
      vertex -2.0569522380828857 -1.1247400045394897 -0.3820209801197052
      vertex -2.3931052684783936 1.0261002779006958 -0.38202080130577087
      vertex -2.3931052684783936 -1.4122997522354126 -0.38202095031738281
    endloop
  endfacet
  facet normal 1.1837575536778546e-07 -8.0918614000084625e-08 0.99999999999998979
    outer loop
      vertex -1.4723553657531738 -2.5425996780395508 -0.38202115893363953
      vertex -1.4723553657531738 -3.2791996002197266 -0.3820212185382843
      vertex -0.58748281002044678 -2.7213203907012939 -0.38202127814292908
    endloop
  endfacet
  facet normal 1.2444300422407411e-07 -9.0542098636418432e-08 0.99999999999998823
    outer loop
      vertex 0.20404466986656189 -3.2791996002197266 -0.38202142715454102
      vertex -0.58748281002044678 -2.7213203907012939 -0.38202127814292908
      vertex -1.4723553657531738 -3.2791996002197266 -0.3820212185382843
    endloop
  endfacet
  facet normal 1.4222058131275768e-07 -8.4016278178944967e-08 0.99999999999998646
    outer loop
      vertex 1.371809720993042 -2.7213203907012939 -0.38202154636383057
      vertex 0.20404466986656189 -3.2791996002197266 -0.38202142715454102
      vertex 1.8804446458816528 -3.2791996002197266 -0.38202166557312012
    endloop
  endfacet
  facet normal 1.4561815068696997e-07 -8.0918614000084334e-08 0.99999999999998623
    outer loop
      vertex 1.8804446458816528 -2.5425996780395508 -0.38202160596847534
      vertex 1.371809720993042 -2.7213203907012939 -0.38202154636383057
      vertex 1.8804446458816528 -3.2791996002197266 -0.38202166557312012
    endloop
  endfacet
  facet normal 1.368968121113141e-07 -7.28724472068676e-08 0.99999999999998801
    outer loop
      vertex -0.58748281002044678 -2.7213203907012939 -0.38202127814292908
      vertex 0.20404466986656189 -3.2791996002197266 -0.38202142715454102
      vertex 1.371809720993042 -2.7213203907012939 -0.38202154636383057
    endloop
  endfacet
  facet normal 1.521075597578864e-07 -7.2935875251456853e-08 0.99999999999998579
    outer loop
      vertex -0.58748281002044678 -1.9230302572250366 -0.38202124834060669
      vertex -1.5671291351318359 -1.9230302572250366 -0.38202109932899475
      vertex -1.4723553657531738 -2.5425996780395508 -0.38202115893363953
    endloop
  endfacet
  facet normal 1.2717895124627172e-07 -3.7332695392234144e-08 0.99999999999999134
    outer loop
      vertex -0.58748281002044678 -2.7213203907012939 -0.38202127814292908
      vertex -0.58748281002044678 -1.9230302572250366 -0.38202124834060669
      vertex -1.4723553657531738 -2.5425996780395508 -0.38202115893363953
    endloop
  endfacet
  facet normal 1.3030322429390452e-07 -3.733269539223413e-08 0.99999999999999079
    outer loop
      vertex 1.371809720993042 -2.7213203907012939 -0.38202154636383057
      vertex 1.8804446458816528 -2.5425996780395508 -0.38202160596847534
      vertex 1.371809720993042 -1.9230302572250366 -0.38202151656150818
    endloop
  endfacet
  facet normal 1.2168606261380585e-07 -4.4406946051906739e-08 0.99999999999999156
    outer loop
      vertex 3.3311021327972412 -1.9230302572250366 -0.38202175498008728
      vertex 1.371809720993042 -1.9230302572250366 -0.38202151656150818
      vertex 1.8804446458816528 -2.5425996780395508 -0.38202160596847534
    endloop
  endfacet
  facet normal 1.564783676204584e-07 -5.8680906197282898e-08 0.99999999999998601
    outer loop
      vertex -1.5671291351318359 -0.32644972205162048 -0.38202100992202759
      vertex -2.3931052684783936 1.0261002779006958 -0.38202080130577087
      vertex -2.0569522380828857 -1.1247400045394897 -0.3820209801197052
    endloop
  endfacet
  facet normal -0 0 1
    outer loop
      vertex -2.2407052516937256 1.0261002779006958 -0.38202083110809326
      vertex -2.0569522380828857 1.0705581903457642 -0.38202083110809326
      vertex -2.0569522380828857 1.2701307535171509 -0.38202083110809326
    endloop
  endfacet
  facet normal 1.9555327496980269e-07 3.9526785746844237e-08 0.99999999999998013
    outer loop
      vertex -2.0569522380828857 0.87098568677902222 -0.38202086091041565
      vertex -2.2407052516937256 1.0261002779006958 -0.38202083110809326
      vertex -2.3931052684783936 1.0261002779006958 -0.38202080130577087
    endloop
  endfacet
  facet normal 1.2168606261380566e-07 -7.4665374059710192e-08 0.9999999999999899
    outer loop
      vertex -1.5671291351318359 0.87098568677902222 -0.38202092051506042
      vertex -2.0569522380828857 0.87098568677902222 -0.38202086091041565
      vertex -1.5671291351318359 0.47184053063392639 -0.38202095031738281
    endloop
  endfacet
  facet normal 1.7050529476034671e-07 -1.4755370379209354e-08 0.99999999999998546
    outer loop
      vertex -2.3931052684783936 1.0261002779006958 -0.38202080130577087
      vertex -1.5671291351318359 0.47184053063392639 -0.38202095031738281
      vertex -2.0569522380828857 0.87098568677902222 -0.38202086091041565
    endloop
  endfacet
  facet normal 3.6129670329125002e-08 -1.4933080386862178e-07 0.99999999999998823
    outer loop
      vertex -2.0569522380828857 1.0705581903457642 -0.38202083110809326
      vertex -2.2407052516937256 1.0261002779006958 -0.38202083110809326
      vertex -2.0569522380828857 0.87098568677902222 -0.38202086091041565
    endloop
  endfacet
  facet normal 1.3030351985660897e-07 -7.4665379634628622e-08 0.99999999999998901
    outer loop
      vertex -2.3931052684783936 1.0261002779006958 -0.38202080130577087
      vertex -1.5671291351318359 -0.32644972205162048 -0.38202100992202759
      vertex -1.5671291351318359 0.47184053063392639 -0.38202095031738281
    endloop
  endfacet
  facet normal 1.0052968424136194e-07 -7.569805529424946e-08 0.99999999999999201
    outer loop
      vertex -2.2407052516937256 2.6009001731872559 -0.38202071189880371
      vertex -2.2407052516937256 1.0261002779006958 -0.38202083110809326
      vertex -2.0569522380828857 1.2701307535171509 -0.38202083110809326
    endloop
  endfacet
  facet normal 1.2168606261380564e-07 -7.4665379634628675e-08 0.99999999999998979
    outer loop
      vertex -1.5671291351318359 1.6692758798599243 -0.38202086091041565
      vertex -2.0569522380828857 1.2701307535171509 -0.38202083110809326
      vertex -1.5671291351318359 1.2701307535171509 -0.38202089071273804
    endloop
  endfacet
  facet normal 1.1917353614323334e-07 -7.3123707009982068e-08 0.99999999999999023
    outer loop
      vertex -1.5671291351318359 2.0684211254119873 -0.38202083110809326
      vertex -2.2407052516937256 2.6009001731872559 -0.38202071189880371
      vertex -2.0569522380828857 1.2701307535171509 -0.38202083110809326
    endloop
  endfacet
  facet normal 1.2168604444233894e-07 -7.466535733495968e-08 0.99999999999998979
    outer loop
      vertex -1.5671291351318359 1.6692758798599243 -0.38202086091041565
      vertex -1.5671291351318359 2.0684211254119873 -0.38202083110809326
      vertex -2.0569522380828857 1.2701307535171509 -0.38202083110809326
    endloop
  endfacet
  facet normal 1.2168604780630962e-07 -7.4665379634628675e-08 0.99999999999998979
    outer loop
      vertex -0.58748281002044678 -0.32644972205162048 -0.38202112913131714
      vertex -0.58748281002044678 0.47184053063392639 -0.38202106952667236
      vertex -1.5671291351318359 0.47184053063392639 -0.38202095031738281
    endloop
  endfacet
  facet normal 1.2168604780630962e-07 -7.4665379634628675e-08 0.99999999999998979
    outer loop
      vertex -0.58748281002044678 -0.32644972205162048 -0.38202112913131714
      vertex -1.5671291351318359 0.47184053063392639 -0.38202095031738281
      vertex -1.5671291351318359 -0.32644972205162048 -0.38202100992202759
    endloop
  endfacet
  facet normal 1.3689681211131415e-07 -6.8702829708279863e-08 0.99999999999998845
    outer loop
      vertex 0.11514467000961304 2.6009001731872559 -0.38202103972434998
      vertex -0.58748281002044678 2.0684211254119873 -0.3820209801197052
      vertex 1.371809720993042 2.0684211254119873 -0.38202124834060669
    endloop
  endfacet
  facet normal 1.3915383286708616e-07 -7.1681059204124704e-08 0.99999999999998779
    outer loop
      vertex -2.2407052516937256 2.6009001731872559 -0.38202071189880371
      vertex -0.58748281002044678 2.0684211254119873 -0.3820209801197052
      vertex 0.11514467000961304 2.6009001731872559 -0.38202103972434998
    endloop
  endfacet
  facet normal 1.2650347802337061e-07 -1.4881010363438342e-07 0.9999999999999809
    outer loop
      vertex 2.4709947109222412 2.6009001731872559 -0.38202133774757385
      vertex 0.11514467000961304 2.6009001731872559 -0.38202103972434998
      vertex 1.371809720993042 2.4675662517547607 -0.3820212185382843
    endloop
  endfacet
  facet normal 1.3437033705369232e-07 -7.4665379634628569e-08 0.99999999999998823
    outer loop
      vertex 1.371809720993042 2.0684211254119873 -0.38202124834060669
      vertex 1.371809720993042 2.4675662517547607 -0.3820212185382843
      vertex 0.11514467000961304 2.6009001731872559 -0.38202103972434998
    endloop
  endfacet
  facet normal 1.2168606261380527e-07 -1.0909604848953837e-07 0.99999999999998657
    outer loop
      vertex 2.3514559268951416 2.4675662517547607 -0.38202133774757385
      vertex 2.4709947109222412 2.6009001731872559 -0.38202133774757385
      vertex 1.371809720993042 2.4675662517547607 -0.3820212185382843
    endloop
  endfacet
  facet normal 1.6096994047331395e-07 0 0.99999999999998712
    outer loop
      vertex 2.4709947109222412 2.6009001731872559 -0.38202133774757385
      vertex 2.8412790298461914 2.6671388149261475 -0.38202139735221863
      vertex 2.4709947109222412 2.8041002750396729 -0.38202133774757385
    endloop
  endfacet
  facet normal 1.2168606261380527e-07 -1.0909604848953838e-07 0.99999999999998668
    outer loop
      vertex 2.3514559268951416 2.4675662517547607 -0.38202133774757385
      vertex 2.8412790298461914 2.4675662517547607 -0.38202139735221863
      vertex 2.4709947109222412 2.6009001731872559 -0.38202133774757385
    endloop
  endfacet
  facet normal 1.6096994047331392e-07 0 0.99999999999998701
    outer loop
      vertex 2.8412790298461914 2.4675662517547607 -0.38202139735221863
      vertex 2.8412790298461914 2.6671388149261475 -0.38202139735221863
      vertex 2.4709947109222412 2.6009001731872559 -0.38202133774757385
    endloop
  endfacet
  facet normal 1.5210755975788674e-07 -3.1462778149399748e-08 0.99999999999998801
    outer loop
      vertex -1.5671291351318359 2.0684211254119873 -0.38202083110809326
      vertex -0.58748281002044678 2.0684211254119873 -0.3820209801197052
      vertex -2.2407052516937256 2.6009001731872559 -0.38202071189880371
    endloop
  endfacet
  facet normal 1.2934231722895701e-07 -6.5184424989934856e-08 0.99999999999998956
    outer loop
      vertex 4.9347949028015137 -3.4569997787475586 -0.38202208280563354
      vertex 3.321894645690918 -2.5425996780395508 -0.38202181458473206
      vertex 3.321894645690918 -3.4569997787475586 -0.38202187418937683
    endloop
  endfacet
  facet normal 1.4472666879979771e-07 -9.8354133798588911e-08 0.99999999999998468
    outer loop
      vertex 3.321894645690918 -2.5425996780395508 -0.38202181458473206
      vertex 3.3311021327972412 -1.9230302572250366 -0.38202175498008728
      vertex 1.8804446458816528 -2.5425996780395508 -0.38202160596847534
    endloop
  endfacet
  facet normal 1.4781983482020187e-07 -6.5184424989934697e-08 0.99999999999998712
    outer loop
      vertex 6.5476946830749512 -2.5425996780395508 -0.38202226161956787
      vertex 4.9347949028015137 -3.4569997787475586 -0.38202208280563354
      vertex 6.5476946830749512 -3.4569997787475586 -0.38202232122421265
    endloop
  endfacet
  facet normal 1.3858107465890801e-07 -4.888828260914046e-08 0.99999999999998934
    outer loop
      vertex 3.321894645690918 -2.5425996780395508 -0.38202181458473206
      vertex 4.9347949028015137 -3.4569997787475586 -0.38202208280563354
      vertex 6.5476946830749512 -2.5425996780395508 -0.38202226161956787
    endloop
  endfacet
  facet normal 1.3858107465890743e-07 -1.0358905011650651e-07 0.99999999999998512
    outer loop
      vertex 5.2903947830200195 -1.9230302572250366 -0.38202202320098877
      vertex 3.321894645690918 -2.5425996780395508 -0.38202181458473206
      vertex 6.5476946830749512 -2.5425996780395508 -0.38202226161956787
    endloop
  endfacet
  facet normal 1.368968037820978e-07 -9.8237773341192765e-08 0.99999999999998612
    outer loop
      vertex 5.2903947830200195 -1.9230302572250366 -0.38202202320098877
      vertex 3.3311021327972412 -1.9230302572250366 -0.38202175498008728
      vertex 3.321894645690918 -2.5425996780395508 -0.38202181458473206
    endloop
  endfacet
  facet normal 1.5210750422980023e-07 -2.1401297336811746e-07 0.99999999999996547
    outer loop
      vertex 6.5476946830749512 -2.5425996780395508 -0.38202226161956787
      vertex 8.2293338775634766 -2.3221752643585205 -0.38202247023582458
      vertex 7.2496871948242188 -2.3221752643585205 -0.38202232122421265
    endloop
  endfacet
  facet normal 1.3689682044053069e-07 -1.0700692806414348e-07 0.9999999999999849
    outer loop
      vertex 6.5476946830749512 -2.5425996780395508 -0.38202226161956787
      vertex 7.2496871948242188 -1.9230302572250366 -0.38202229142189026
      vertex 5.2903947830200195 -1.9230302572250366 -0.38202202320098877
    endloop
  endfacet
  facet normal 1.0835261195234317e-07 -7.4665401934311116e-08 0.99999999999999123
    outer loop
      vertex 6.5476946830749512 -2.5425996780395508 -0.38202226161956787
      vertex 7.2496871948242188 -2.3221752643585205 -0.38202232122421265
      vertex 7.2496871948242188 -1.9230302572250366 -0.38202229142189026
    endloop
  endfacet
  facet normal 1.2653449532797731e-07 -1.8914012358537361e-08 0.99999999999999178
    outer loop
      vertex 6.5476946830749512 -2.5425996780395508 -0.38202226161956787
      vertex 9.1384944915771484 -2.5425996780395508 -0.38202258944511414
      vertex 8.2293338775634766 -2.3221752643585205 -0.38202247023582458
    endloop
  endfacet
  facet normal 1.3968091069271732e-07 -6.9018790227601058e-08 0.99999999999998812
    outer loop
      vertex 11.2720947265625 -2.9743998050689697 -0.3820229172706604
      vertex 9.1384944915771484 -2.5425996780395508 -0.38202258944511414
      vertex 9.1384944915771484 -2.9743998050689697 -0.38202261924743652
    endloop
  endfacet
  facet normal 1.400978555501417e-07 -1.5104539902403941e-07 0.99999999999997891
    outer loop
      vertex 11.2720947265625 -2.5425996780395508 -0.38202288746833801
      vertex 12.973895072937012 -2.5425996780395508 -0.38202312588691711
      vertex 12.147918701171875 -2.3221752643585205 -0.38202297687530518
    endloop
  endfacet
  facet normal 1.2168600338384312e-07 -7.7888613553154035e-08 0.99999999999998956
    outer loop
      vertex 11.2720947265625 -2.5425996780395508 -0.38202288746833801
      vertex 12.147918701171875 -2.3221752643585205 -0.38202297687530518
      vertex 11.168272018432617 -2.3221752643585205 -0.38202285766601562
    endloop
  endfacet
  facet normal 1.3968091069271732e-07 -6.9018790227601058e-08 0.99999999999998812
    outer loop
      vertex 9.1384944915771484 -2.5425996780395508 -0.38202258944511414
      vertex 11.2720947265625 -2.9743998050689697 -0.3820229172706604
      vertex 11.2720947265625 -2.5425996780395508 -0.38202288746833801
    endloop
  endfacet
  facet normal 1.3968091069271729e-07 -6.9412782867460924e-08 0.9999999999999879
    outer loop
      vertex 11.168272018432617 -2.3221752643585205 -0.38202285766601562
      vertex 9.1384944915771484 -2.5425996780395508 -0.38202258944511414
      vertex 11.2720947265625 -2.5425996780395508 -0.38202288746833801
    endloop
  endfacet
  facet normal 1.3689682044053111e-07 -7.4665401934310877e-08 0.99999999999998801
    outer loop
      vertex 9.208979606628418 -1.9230302572250366 -0.38202255964279175
      vertex 9.208979606628418 -2.3221752643585205 -0.38202258944511414
      vertex 11.168272018432617 -2.3221752643585205 -0.38202285766601562
    endloop
  endfacet
  facet normal 1.3689682044053111e-07 -7.4665401934310877e-08 0.99999999999998801
    outer loop
      vertex 9.208979606628418 -1.9230302572250366 -0.38202255964279175
      vertex 11.168272018432617 -2.3221752643585205 -0.38202285766601562
      vertex 11.168272018432617 -1.9230302572250366 -0.38202282786369324
    endloop
  endfacet
  facet normal 1.3689682044053135e-07 -4.3775496451436168e-08 0.99999999999998979
    outer loop
      vertex 9.1384944915771484 -2.5425996780395508 -0.38202258944511414
      vertex 11.168272018432617 -2.3221752643585205 -0.38202285766601562
      vertex 9.208979606628418 -2.3221752643585205 -0.38202258944511414
    endloop
  endfacet
  facet normal 1.8040662787971985e-07 0 0.99999999999998379
    outer loop
      vertex 12.973895072937012 -2.5425996780395508 -0.38202312588691711
      vertex 12.147918701171875 -1.9230302572250366 -0.38202297687530518
      vertex 12.147918701171875 -2.3221752643585205 -0.38202297687530518
    endloop
  endfacet
  facet normal 1.5210750422980332e-07 -7.4665379634628384e-08 0.99999999999998579
    outer loop
      vertex 11.168272018432617 -1.1247400045394897 -0.38202276825904846
      vertex 11.168272018432617 -1.9230302572250366 -0.38202282786369324
      vertex 12.147918701171875 -1.9230302572250366 -0.38202297687530518
    endloop
  endfacet
  facet normal 1.2825174599619207e-07 -6.9530061782847726e-08 0.99999999999998934
    outer loop
      vertex 12.147918701171875 -1.9230302572250366 -0.38202297687530518
      vertex 12.973895072937012 -2.5425996780395508 -0.38202312588691711
      vertex 12.973895072937012 0.029150292277336121 -0.38202294707298279
    endloop
  endfacet
  facet normal 1.2168612184382604e-07 -3.8911571341260294e-08 0.99999999999999167
    outer loop
      vertex 9.1384944915771484 -2.5425996780395508 -0.38202258944511414
      vertex 9.208979606628418 -2.3221752643585205 -0.38202258944511414
      vertex 8.2293338775634766 -2.3221752643585205 -0.38202247023582458
    endloop
  endfacet
  facet normal 1.2168603299881617e-07 -1.4933075926925613e-07 0.99999999999998157
    outer loop
      vertex 3.3311021327972412 2.6671388149261475 -0.3820214569568634
      vertex 3.3311021327972412 2.4675662517547607 -0.38202148675918579
      vertex 4.3107485771179199 2.4675662517547607 -0.38202160596847534
    endloop
  endfacet
  facet normal 1.2168612184382331e-07 -2.169243016946402e-07 0.99999999999996914
    outer loop
      vertex 5.7729945182800293 2.6009001731872559 -0.38202178478240967
      vertex 5.2903947830200195 2.4675662517547607 -0.38202175498008728
      vertex 5.7802176475524902 2.4675662517547607 -0.38202181458473206
    endloop
  endfacet
  facet normal 1.2168600338384064e-07 -2.1692430811200017e-07 0.99999999999996925
    outer loop
      vertex 5.7729945182800293 2.6009001731872559 -0.38202178478240967
      vertex 5.7802176475524902 2.4675662517547607 -0.38202181458473206
      vertex 6.2700409889221191 2.4675662517547607 -0.38202187418937683
    endloop
  endfacet
  facet normal 1.5210757826725558e-07 -1.2957012247824921e-07 0.99999999999998002
    outer loop
      vertex 4.3107485771179199 2.4675662517547607 -0.38202160596847534
      vertex 5.2903947830200195 2.4675662517547607 -0.38202175498008728
      vertex 5.7729945182800293 2.8041002750396729 -0.38202178478240967
    endloop
  endfacet
  facet normal 1.4440858618795197e-07 -9.6117873552229393e-08 0.9999999999999849
    outer loop
      vertex 4.3107485771179199 2.4675662517547607 -0.38202160596847534
      vertex 5.7729945182800293 2.8041002750396729 -0.38202178478240967
      vertex 4.1219944953918457 2.8041002750396729 -0.38202154636383057
    endloop
  endfacet
  facet normal 1.2635753116157076e-07 -9.3576925930057288e-08 0.9999999999999879
    outer loop
      vertex 4.1219944953918457 2.8041002750396729 -0.38202154636383057
      vertex 2.4709947109222412 2.8041002750396729 -0.38202133774757385
      vertex 2.8412790298461914 2.6671388149261475 -0.38202139735221863
    endloop
  endfacet
  facet normal 1.2168606261380582e-07 -4.9894403774013694e-08 0.99999999999999123
    outer loop
      vertex 4.1219944953918457 2.8041002750396729 -0.38202154636383057
      vertex 2.8412790298461914 2.6671388149261475 -0.38202139735221863
      vertex 3.3311021327972412 2.6671388149261475 -0.3820214569568634
    endloop
  endfacet
  facet normal 1.309937067484753e-07 -1.0364196643695026e-07 0.99999999999998623
    outer loop
      vertex 4.3107485771179199 2.4675662517547607 -0.38202160596847534
      vertex 4.1219944953918457 2.8041002750396729 -0.38202154636383057
      vertex 3.3311021327972412 2.6671388149261475 -0.3820214569568634
    endloop
  endfacet
  facet normal 1.2168606261380315e-07 -2.1692408731264541e-07 0.99999999999996914
    outer loop
      vertex 5.7729945182800293 2.6009001731872559 -0.38202178478240967
      vertex 6.2700409889221191 2.4675662517547607 -0.38202187418937683
      vertex 7.2496871948242188 2.4675662517547607 -0.38202199339866638
    endloop
  endfacet
  facet normal 6.1753706457461468e-08 -0 0.99999999999999822
    outer loop
      vertex 5.7729945182800293 2.6009001731872559 -0.38202178478240967
      vertex 5.7729945182800293 2.8041002750396729 -0.38202178478240967
      vertex 5.2903947830200195 2.4675662517547607 -0.38202175498008728
    endloop
  endfacet
  facet normal 1.3657687688910509e-07 -5.2006141812583017e-08 0.99999999999998945
    outer loop
      vertex 7.2496871948242188 2.4675662517547607 -0.38202199339866638
      vertex 8.1732950210571289 2.6009001731872559 -0.38202211260795593
      vertex 5.7729945182800293 2.6009001731872559 -0.38202178478240967
    endloop
  endfacet
  facet normal 1.3689682044053114e-07 -7.4665381028358312e-08 0.99999999999998812
    outer loop
      vertex 11.168272018432617 -0.32644972205162048 -0.38202273845672607
      vertex 9.208979606628418 1.2701307535171509 -0.38202235102653503
      vertex 9.208979606628418 -0.32644972205162048 -0.38202247023582458
    endloop
  endfacet
  facet normal 1.2288930444185942e-07 -3.733268842358474e-08 0.99999999999999178
    outer loop
      vertex 11.168272018432617 -0.32644972205162048 -0.38202273845672607
      vertex 11.168272018432617 -1.1247400045394897 -0.38202276825904846
      vertex 12.973895072937012 0.029150292277336121 -0.38202294707298279
    endloop
  endfacet
  facet normal 1.4910307828432884e-07 -7.8352354267123618e-08 0.99999999999998579
    outer loop
      vertex 12.147918701171875 -1.9230302572250366 -0.38202297687530518
      vertex 12.973895072937012 0.029150292277336121 -0.38202294707298279
      vertex 11.168272018432617 -1.1247400045394897 -0.38202276825904846
    endloop
  endfacet
  facet normal 1.3153698882465691e-07 -8.1242861821983477e-08 0.99999999999998801
    outer loop
      vertex 9.208979606628418 1.2701307535171509 -0.38202235102653503
      vertex 11.168272018432617 -0.32644972205162048 -0.38202273845672607
      vertex 12.973895072937012 0.029150292277336121 -0.38202294707298279
    endloop
  endfacet
  facet normal 1.3539772703387676e-07 -6.9530064200062494e-08 0.99999999999998834
    outer loop
      vertex 12.973895072937012 2.6009001731872559 -0.38202276825904846
      vertex 9.208979606628418 1.2701307535171509 -0.38202235102653503
      vertex 12.973895072937012 0.029150292277336121 -0.38202294707298279
    endloop
  endfacet
  facet normal 1.3984801096752371e-07 -7.4665379634628516e-08 0.99999999999998757
    outer loop
      vertex 7.2496871948242188 2.4675662517547607 -0.38202199339866638
      vertex 7.2496871948242188 2.0684211254119873 -0.38202202320098877
      vertex 8.1732950210571289 2.6009001731872559 -0.38202211260795593
    endloop
  endfacet
  facet normal 1.3689682044053114e-07 -6.9546412646494143e-08 0.99999999999998823
    outer loop
      vertex 9.208979606628418 2.0684211254119873 -0.38202229142189026
      vertex 8.1732950210571289 2.6009001731872559 -0.38202211260795593
      vertex 7.2496871948242188 2.0684211254119873 -0.38202202320098877
    endloop
  endfacet
  facet normal 1.3833154064272516e-07 -7.4665368484792358e-08 0.99999999999998779
    outer loop
      vertex 9.208979606628418 2.0684211254119873 -0.38202229142189026
      vertex 9.208979606628418 1.2701307535171509 -0.38202235102653503
      vertex 10.57359504699707 2.6009001731872559 -0.3820224404335022
    endloop
  endfacet
  facet normal 1.3657690402110056e-07 -7.2866105448902325e-08 0.99999999999998812
    outer loop
      vertex 12.973895072937012 2.6009001731872559 -0.38202276825904846
      vertex 10.57359504699707 2.6009001731872559 -0.3820224404335022
      vertex 9.208979606628418 1.2701307535171509 -0.38202235102653503
    endloop
  endfacet
  facet normal 1.3657690402110056e-07 -7.0168657795218285e-08 0.99999999999998823
    outer loop
      vertex 8.1732950210571289 2.6009001731872559 -0.38202211260795593
      vertex 9.208979606628418 2.0684211254119873 -0.38202229142189026
      vertex 10.57359504699707 2.6009001731872559 -0.3820224404335022
    endloop
  endfacet
  facet normal 0 1 0
    outer loop
      vertex 6.2420921325683594 1.9136505126953125 0.35839492082595825
      vertex 6.3944921493530273 1.9136505126953125 0.35839492082595825
      vertex 6.3944921493530273 1.9136505126953125 -0.38200896978378296
    endloop
  endfacet
  facet normal -0 1 0
    outer loop
      vertex 6.2420921325683594 1.9136505126953125 0.35839492082595825
      vertex 6.3944921493530273 1.9136505126953125 -0.38200896978378296
      vertex 6.2420921325683594 1.9136505126953125 -0.38200896978378296
    endloop
  endfacet
  facet normal 1 -0 0
    outer loop
      vertex 6.3944921493530273 1.9136505126953125 0.35839492082595825
      vertex 6.3944921493530273 1.7612504959106445 0.35839492082595825
      vertex 6.3944921493530273 1.7612504959106445 -0.38200896978378296
    endloop
  endfacet
  facet normal 1 0 0
    outer loop
      vertex 6.3944921493530273 1.9136505126953125 0.35839492082595825
      vertex 6.3944921493530273 1.7612504959106445 -0.38200896978378296
      vertex 6.3944921493530273 1.9136505126953125 -0.38200896978378296
    endloop
  endfacet
  facet normal 0 -1 -0
    outer loop
      vertex 6.3944921493530273 1.7612504959106445 0.35839492082595825
      vertex 6.2420921325683594 1.7612504959106445 0.35839492082595825
      vertex 6.2420921325683594 1.7612504959106445 -0.38200896978378296
    endloop
  endfacet
  facet normal -0 -1 0
    outer loop
      vertex 6.3944921493530273 1.7612504959106445 0.35839492082595825
      vertex 6.2420921325683594 1.7612504959106445 -0.38200896978378296
      vertex 6.3944921493530273 1.7612504959106445 -0.38200896978378296
    endloop
  endfacet
  facet normal -1 -0 -0
    outer loop
      vertex 6.2420921325683594 1.7612504959106445 0.35839492082595825
      vertex 6.2420921325683594 1.9136505126953125 0.35839492082595825
      vertex 6.2420921325683594 1.9136505126953125 -0.38200896978378296
    endloop
  endfacet
  facet normal -1 0 0
    outer loop
      vertex 6.2420921325683594 1.7612504959106445 0.35839492082595825
      vertex 6.2420921325683594 1.9136505126953125 -0.38200896978378296
      vertex 6.2420921325683594 1.7612504959106445 -0.38200896978378296
    endloop
  endfacet
  facet normal -0 -0 1
    outer loop
      vertex 6.2420921325683594 1.9136505126953125 0.35839492082595825
      vertex 6.2420921325683594 1.7612504959106445 0.35839492082595825
      vertex 6.3944921493530273 1.7612504959106445 0.35839492082595825
    endloop
  endfacet
  facet normal 0 0 1
    outer loop
      vertex 6.3944921493530273 1.7612504959106445 0.35839492082595825
      vertex 6.3944921493530273 1.9136505126953125 0.35839492082595825
      vertex 6.2420921325683594 1.9136505126953125 0.35839492082595825
    endloop
  endfacet
  facet normal 0 0 -1
    outer loop
      vertex 6.2420921325683594 1.9136505126953125 -0.38200896978378296
      vertex 6.3944921493530273 1.7612504959106445 -0.38200896978378296
      vertex 6.2420921325683594 1.7612504959106445 -0.38200896978378296
    endloop
  endfacet
  facet normal -0 -0 -1
    outer loop
      vertex 6.3944921493530273 1.7612504959106445 -0.38200896978378296
      vertex 6.2420921325683594 1.9136505126953125 -0.38200896978378296
      vertex 6.3944921493530273 1.9136505126953125 -0.38200896978378296
    endloop
  endfacet
  facet normal 1 -0 0
    outer loop
      vertex 7.3596920967102051 1.9136505126953125 0.35839492082595825
      vertex 7.3596920967102051 1.7612504959106445 0.35839492082595825
      vertex 7.3596920967102051 1.7612504959106445 -0.38200896978378296
    endloop
  endfacet
  facet normal 1 0 0
    outer loop
      vertex 7.3596920967102051 1.9136505126953125 0.35839492082595825
      vertex 7.3596920967102051 1.7612504959106445 -0.38200896978378296
      vertex 7.3596920967102051 1.9136505126953125 -0.38200896978378296
    endloop
  endfacet
  facet normal 0 -1 -0
    outer loop
      vertex 7.3596920967102051 1.7612504959106445 0.35839492082595825
      vertex 7.2072920799255371 1.7612504959106445 0.35839492082595825
      vertex 7.2072920799255371 1.7612504959106445 -0.38200896978378296
    endloop
  endfacet
  facet normal -0 -1 0
    outer loop
      vertex 7.3596920967102051 1.7612504959106445 0.35839492082595825
      vertex 7.2072920799255371 1.7612504959106445 -0.38200896978378296
      vertex 7.3596920967102051 1.7612504959106445 -0.38200896978378296
    endloop
  endfacet
  facet normal -1 -0 -0
    outer loop
      vertex 7.2072920799255371 1.7612504959106445 0.35839492082595825
      vertex 7.2072920799255371 1.9136505126953125 0.35839492082595825
      vertex 7.2072920799255371 1.9136505126953125 -0.38200896978378296
    endloop
  endfacet
  facet normal -1 0 0
    outer loop
      vertex 7.2072920799255371 1.7612504959106445 0.35839492082595825
      vertex 7.2072920799255371 1.9136505126953125 -0.38200896978378296
      vertex 7.2072920799255371 1.7612504959106445 -0.38200896978378296
    endloop
  endfacet
  facet normal 0 1 0
    outer loop
      vertex 7.2072920799255371 1.9136505126953125 0.35839492082595825
      vertex 7.3596920967102051 1.9136505126953125 0.35839492082595825
      vertex 7.3596920967102051 1.9136505126953125 -0.38200896978378296
    endloop
  endfacet
  facet normal -0 1 0
    outer loop
      vertex 7.2072920799255371 1.9136505126953125 0.35839492082595825
      vertex 7.3596920967102051 1.9136505126953125 -0.38200896978378296
      vertex 7.2072920799255371 1.9136505126953125 -0.38200896978378296
    endloop
  endfacet
  facet normal 0 0 1
    outer loop
      vertex 7.3596920967102051 1.7612504959106445 0.35839492082595825
      vertex 7.3596920967102051 1.9136505126953125 0.35839492082595825
      vertex 7.2072920799255371 1.9136505126953125 0.35839492082595825
    endloop
  endfacet
  facet normal -0 -0 1
    outer loop
      vertex 7.2072920799255371 1.9136505126953125 0.35839492082595825
      vertex 7.2072920799255371 1.7612504959106445 0.35839492082595825
      vertex 7.3596920967102051 1.7612504959106445 0.35839492082595825
    endloop
  endfacet
  facet normal -0 -0 -1
    outer loop
      vertex 7.3596920967102051 1.7612504959106445 -0.38200896978378296
      vertex 7.2072920799255371 1.9136505126953125 -0.38200896978378296
      vertex 7.3596920967102051 1.9136505126953125 -0.38200896978378296
    endloop
  endfacet
  facet normal 0 0 -1
    outer loop
      vertex 7.2072920799255371 1.9136505126953125 -0.38200896978378296
      vertex 7.3596920967102051 1.7612504959106445 -0.38200896978378296
      vertex 7.2072920799255371 1.7612504959106445 -0.38200896978378296
    endloop
  endfacet
  facet normal 0 -1 -0
    outer loop
      vertex 7.3596920967102051 -0.42314949631690979 0.35839492082595825
      vertex 7.2072920799255371 -0.42314949631690979 0.35839492082595825
      vertex 7.2072920799255371 -0.42314949631690979 -0.38200896978378296
    endloop
  endfacet
  facet normal -0 -1 0
    outer loop
      vertex 7.3596920967102051 -0.42314949631690979 0.35839492082595825
      vertex 7.2072920799255371 -0.42314949631690979 -0.38200896978378296
      vertex 7.3596920967102051 -0.42314949631690979 -0.38200896978378296
    endloop
  endfacet
  facet normal -1 -0 -0
    outer loop
      vertex 7.2072920799255371 -0.42314949631690979 0.35839492082595825
      vertex 7.2072920799255371 -0.27074950933456421 0.35839492082595825
      vertex 7.2072920799255371 -0.27074950933456421 -0.38200896978378296
    endloop
  endfacet
  facet normal -1 0 0
    outer loop
      vertex 7.2072920799255371 -0.42314949631690979 0.35839492082595825
      vertex 7.2072920799255371 -0.27074950933456421 -0.38200896978378296
      vertex 7.2072920799255371 -0.42314949631690979 -0.38200896978378296
    endloop
  endfacet
  facet normal 0 1 0
    outer loop
      vertex 7.2072920799255371 -0.27074950933456421 0.35839492082595825
      vertex 7.3596920967102051 -0.27074950933456421 0.35839492082595825
      vertex 7.3596920967102051 -0.27074950933456421 -0.38200896978378296
    endloop
  endfacet
  facet normal -0 1 0
    outer loop
      vertex 7.2072920799255371 -0.27074950933456421 0.35839492082595825
      vertex 7.3596920967102051 -0.27074950933456421 -0.38200896978378296
      vertex 7.2072920799255371 -0.27074950933456421 -0.38200896978378296
    endloop
  endfacet
  facet normal 1 -0 0
    outer loop
      vertex 7.3596920967102051 -0.27074950933456421 0.35839492082595825
      vertex 7.3596920967102051 -0.42314949631690979 0.35839492082595825
      vertex 7.3596920967102051 -0.42314949631690979 -0.38200896978378296
    endloop
  endfacet
  facet normal 1 0 0
    outer loop
      vertex 7.3596920967102051 -0.27074950933456421 0.35839492082595825
      vertex 7.3596920967102051 -0.42314949631690979 -0.38200896978378296
      vertex 7.3596920967102051 -0.27074950933456421 -0.38200896978378296
    endloop
  endfacet
  facet normal 0 0 1
    outer loop
      vertex 7.3596920967102051 -0.42314949631690979 0.35839492082595825
      vertex 7.3596920967102051 -0.27074950933456421 0.35839492082595825
      vertex 7.2072920799255371 -0.27074950933456421 0.35839492082595825
    endloop
  endfacet
  facet normal -0 -0 1
    outer loop
      vertex 7.2072920799255371 -0.27074950933456421 0.35839492082595825
      vertex 7.2072920799255371 -0.42314949631690979 0.35839492082595825
      vertex 7.3596920967102051 -0.42314949631690979 0.35839492082595825
    endloop
  endfacet
  facet normal -0 -0 -1
    outer loop
      vertex 7.3596920967102051 -0.42314949631690979 -0.38200896978378296
      vertex 7.2072920799255371 -0.27074950933456421 -0.38200896978378296
      vertex 7.3596920967102051 -0.27074950933456421 -0.38200896978378296
    endloop
  endfacet
  facet normal 0 0 -1
    outer loop
      vertex 7.2072920799255371 -0.27074950933456421 -0.38200896978378296
      vertex 7.3596920967102051 -0.42314949631690979 -0.38200896978378296
      vertex 7.2072920799255371 -0.42314949631690979 -0.38200896978378296
    endloop
  endfacet
  facet normal -1 -0 -0
    outer loop
      vertex 6.2420921325683594 -0.42314949631690979 0.35839492082595825
      vertex 6.2420921325683594 -0.27074950933456421 0.35839492082595825
      vertex 6.2420921325683594 -0.27074950933456421 -0.38200896978378296
    endloop
  endfacet
  facet normal -1 0 0
    outer loop
      vertex 6.2420921325683594 -0.42314949631690979 0.35839492082595825
      vertex 6.2420921325683594 -0.27074950933456421 -0.38200896978378296
      vertex 6.2420921325683594 -0.42314949631690979 -0.38200896978378296
    endloop
  endfacet
  facet normal 0 1 0
    outer loop
      vertex 6.2420921325683594 -0.27074950933456421 0.35839492082595825
      vertex 6.3944921493530273 -0.27074950933456421 0.35839492082595825
      vertex 6.3944921493530273 -0.27074950933456421 -0.38200896978378296
    endloop
  endfacet
  facet normal -0 1 0
    outer loop
      vertex 6.2420921325683594 -0.27074950933456421 0.35839492082595825
      vertex 6.3944921493530273 -0.27074950933456421 -0.38200896978378296
      vertex 6.2420921325683594 -0.27074950933456421 -0.38200896978378296
    endloop
  endfacet
  facet normal 1 -0 0
    outer loop
      vertex 6.3944921493530273 -0.27074950933456421 0.35839492082595825
      vertex 6.3944921493530273 -0.42314949631690979 0.35839492082595825
      vertex 6.3944921493530273 -0.42314949631690979 -0.38200896978378296
    endloop
  endfacet
  facet normal 1 0 0
    outer loop
      vertex 6.3944921493530273 -0.27074950933456421 0.35839492082595825
      vertex 6.3944921493530273 -0.42314949631690979 -0.38200896978378296
      vertex 6.3944921493530273 -0.27074950933456421 -0.38200896978378296
    endloop
  endfacet
  facet normal 0 -1 -0
    outer loop
      vertex 6.3944921493530273 -0.42314949631690979 0.35839492082595825
      vertex 6.2420921325683594 -0.42314949631690979 0.35839492082595825
      vertex 6.2420921325683594 -0.42314949631690979 -0.38200896978378296
    endloop
  endfacet
  facet normal -0 -1 0
    outer loop
      vertex 6.3944921493530273 -0.42314949631690979 0.35839492082595825
      vertex 6.2420921325683594 -0.42314949631690979 -0.38200896978378296
      vertex 6.3944921493530273 -0.42314949631690979 -0.38200896978378296
    endloop
  endfacet
  facet normal -0 -0 1
    outer loop
      vertex 6.2420921325683594 -0.27074950933456421 0.35839492082595825
      vertex 6.2420921325683594 -0.42314949631690979 0.35839492082595825
      vertex 6.3944921493530273 -0.42314949631690979 0.35839492082595825
    endloop
  endfacet
  facet normal 0 0 1
    outer loop
      vertex 6.3944921493530273 -0.42314949631690979 0.35839492082595825
      vertex 6.3944921493530273 -0.27074950933456421 0.35839492082595825
      vertex 6.2420921325683594 -0.27074950933456421 0.35839492082595825
    endloop
  endfacet
  facet normal 0 0 -1
    outer loop
      vertex 6.2420921325683594 -0.27074950933456421 -0.38200896978378296
      vertex 6.3944921493530273 -0.42314949631690979 -0.38200896978378296
      vertex 6.2420921325683594 -0.42314949631690979 -0.38200896978378296
    endloop
  endfacet
  facet normal -0 -0 -1
    outer loop
      vertex 6.3944921493530273 -0.42314949631690979 -0.38200896978378296
      vertex 6.2420921325683594 -0.27074950933456421 -0.38200896978378296
      vertex 6.3944921493530273 -0.27074950933456421 -0.38200896978378296
    endloop
  endfacet
endsolid OBJECT
